<?xml version="1.0" encoding="UTF-8"?>
<!-- Generator: visioncortex VTracer 0.6.5 -->
<svg version="1.1" xmlns="http://www.w3.org/2000/svg" width="778" height="822" viewBox="0 0 778 822">
<path d="M0 0 C0.92 0.41 1.84 0.82 2.79 1.24 C21.02 10.14 30.57 26.39 39 44 C39.33 44.66 39.66 45.32 40 46 C40.27 45.8 40.27 45.8 41.62 44.79 C92.89 7.6 159.33 3.65 219.99 13.2 C260.83 20.08 299.23 34.36 335.23 54.65 C337.87 55.94 340.1 56.58 343 57 C343.06 56.46 343.13 55.93 343.19 55.38 C346.22 36.02 358.1 17.86 373.75 6.38 C391.39 -5.46 410.83 -9.63 431.75 -5.81 C452.16 -1.17 468.79 10.9 479.94 28.61 C483.44 34.44 485.98 40.5 488 47 C488.24 47.78 488.49 48.56 488.74 49.37 C493.68 68.9 489.1 89.99 479.18 107.1 C475.58 112.88 471.39 119.18 466.14 123.54 C465 125 465 125 465.2 127.36 C465.46 128.23 465.73 129.1 466 130 C466.24 130.85 466.49 131.7 466.74 132.58 C470.26 140.89 475.55 143.21 483.41 146.59 C497.17 152.54 508.34 161.59 519 172 C519.76 172.7 520.53 173.41 521.32 174.13 C556.4 207.2 570.89 259.11 573.19 305.81 C574.23 364.39 552.32 419.84 512 462 C511.36 462.68 510.73 463.36 510.07 464.05 C463.94 511.95 395 524.63 332 533 C332.85 533.71 333.7 534.41 334.58 535.14 C349.49 547.7 364.36 561.29 376 577 C376.49 577.64 376.98 578.28 377.49 578.94 C393.23 599.55 404.06 620.44 402 647 C399.89 658.02 393.94 669.05 385 676 C373.13 683.49 360.75 686.9 346.76 683.86 C339.9 681.73 333.74 678.6 328.32 673.89 C328.01 673.62 328.01 673.62 326.43 672.25 C325.96 671.84 325.49 671.42 325 671 C324.95 671.7 324.89 672.39 324.84 673.11 C320.25 732.46 320.25 732.46 317.88 754.12 C317.8 754.82 317.73 755.52 317.65 756.25 C316.14 770.43 314.54 781.46 304.25 791.75 C292.82 799.66 280.18 799.19 266.81 799.19 C264.64 799.19 262.47 799.21 260.3 799.22 C247.58 799.28 233.85 799.18 223.93 790.11 C216.72 782.21 214.97 775.02 214.54 764.56 C214.46 762.91 214.38 761.26 214.3 759.6 C214.18 757.01 214.06 754.42 213.95 751.84 C213.84 749.33 213.72 746.82 213.6 744.31 C213.58 743.92 213.58 743.92 213.51 741.97 C213.16 735.06 213.16 735.06 211 732 C206.51 729.75 200.39 730.73 195.4 730.7 C193.14 730.69 190.89 730.64 188.63 730.6 C187.19 730.59 185.76 730.58 184.32 730.57 C183.01 730.56 181.71 730.55 180.36 730.53 C177 731 177 731 174.6 732.71 C171.62 736.96 171.86 741.38 171.75 746.45 C171.72 747.69 171.69 748.93 171.65 750.21 C171.59 752.8 171.54 755.38 171.48 757.97 C170.85 780.95 170.85 780.95 162.33 789.72 C150.9 800.03 136.04 799.34 121.44 799.25 C120.13 799.26 118.82 799.27 117.48 799.27 C103.99 799.25 90.95 798.62 80 790 C73.42 782.64 70.7 775.24 69.47 765.6 C69.41 765.14 69.41 765.14 69.1 762.84 C67.64 751.73 66.53 740.59 65.44 729.44 C65.38 728.89 65.38 728.89 65.11 726.14 C63.71 712.03 62.41 697.92 61.54 683.77 C61.48 682.77 61.42 681.78 61.36 680.76 C61.31 679.92 61.27 679.09 61.22 678.23 C61.01 676.07 60.59 674.09 60 672 C59.33 672.53 58.67 673.06 57.98 673.61 C47.22 681.86 36.89 685.72 23.22 684.82 C11.85 683.23 1.64 677.51 -6 669 C-15.61 656.27 -17.54 642.4 -15.77 626.97 C-12.85 607.24 -0.43 589.97 12 575 C12.49 574.4 12.97 573.8 13.47 573.19 C24.31 559.83 36.42 547.16 50 536.57 C52 535 52 535 54 533 C53.38 532.91 53.38 532.91 50.25 532.44 C2.3 525.21 2.3 525.21 -15 521 C-15.52 520.87 -15.52 520.87 -18.15 520.24 C-59.1 510.14 -96.46 492.5 -127 463 C-127.98 462.08 -128.97 461.16 -129.95 460.24 C-165.55 426.42 -187.44 374.26 -189.12 325.4 C-189.22 321.2 -189.25 317.01 -189.25 312.81 C-189.25 312.06 -189.25 311.31 -189.25 310.54 C-189.19 263.71 -173.95 215.78 -141.23 181.35 C-139.24 179.25 -137.4 177.1 -135.56 174.88 C-124.63 162.37 -109.67 153.56 -95.04 146.04 C-94.71 145.87 -94.71 145.87 -93.03 145 C-91.65 144.32 -90.25 143.69 -88.83 143.1 C-85.09 141.5 -82.75 140.28 -80.91 136.55 C-80.41 135.29 -79.94 134.03 -79.5 132.75 C-79.37 132.43 -79.37 132.43 -78.74 130.78 C-78.14 129.2 -77.56 127.6 -77 126 C-77.63 125.36 -78.26 124.71 -78.91 124.05 C-94.64 107.44 -103.45 87.63 -103.37 64.61 C-102.83 45.36 -94.29 27.59 -80.95 13.9 C-58.91 -6.94 -27.46 -12.87 0 0 Z " fill="#6D80FB" transform="translate(197,15)"/>
<path d="M0 0 C-0.5 0.16 -0.5 0.16 -3 1 C-3 1.66 -3 2.32 -3 3 C-5.31 3.33 -7.62 3.66 -10 4 C-9.15 4.71 -8.3 5.41 -7.42 6.14 C7.49 18.7 22.36 32.29 34 48 C34.25 48.32 34.25 48.32 35.49 49.94 C51.23 70.55 62.06 91.44 60 118 C57.89 129.02 51.94 140.05 43 147 C31.13 154.49 18.75 157.9 4.76 154.86 C-2.1 152.73 -8.26 149.6 -13.68 144.89 C-13.99 144.62 -13.99 144.62 -15.57 143.25 C-16.04 142.84 -16.51 142.42 -17 142 C-17.05 142.7 -17.11 143.39 -17.16 144.11 C-21.75 203.46 -21.75 203.46 -24.12 225.12 C-24.2 225.82 -24.27 226.52 -24.35 227.25 C-25.86 241.43 -27.46 252.46 -37.75 262.75 C-49.18 270.66 -61.82 270.19 -75.19 270.19 C-77.36 270.19 -79.53 270.21 -81.7 270.22 C-94.42 270.28 -108.15 270.18 -118.07 261.11 C-125.28 253.21 -127.03 246.02 -127.46 235.56 C-127.54 233.91 -127.62 232.26 -127.7 230.6 C-127.82 228.01 -127.94 225.42 -128.05 222.84 C-128.16 220.33 -128.28 217.82 -128.4 215.31 C-128.43 214.54 -128.46 213.76 -128.49 212.97 C-128.84 206.06 -128.84 206.06 -131 203 C-135.49 200.75 -141.61 201.73 -146.6 201.7 C-148.86 201.69 -151.11 201.64 -153.37 201.6 C-154.81 201.59 -156.24 201.58 -157.68 201.57 C-158.99 201.56 -160.29 201.55 -161.64 201.53 C-165 202 -165 202 -167.4 203.71 C-170.38 207.96 -170.14 212.38 -170.25 217.45 C-170.26 218.07 -170.26 218.07 -170.35 221.21 C-170.41 223.8 -170.46 226.38 -170.52 228.97 C-171.15 251.95 -171.15 251.95 -179.67 260.72 C-191.1 271.03 -205.96 270.34 -220.56 270.25 C-221.22 270.25 -221.22 270.25 -224.52 270.27 C-238.01 270.25 -251.05 269.62 -262 261 C-268.58 253.64 -271.3 246.24 -272.53 236.6 C-272.59 236.14 -272.59 236.14 -272.9 233.84 C-274.36 222.73 -275.47 211.59 -276.56 200.44 C-276.62 199.89 -276.62 199.89 -276.89 197.14 C-278.29 183.03 -279.59 168.92 -280.46 154.77 C-280.52 153.77 -280.58 152.78 -280.64 151.76 C-280.69 150.92 -280.73 150.09 -280.78 149.23 C-280.99 147.07 -281.41 145.09 -282 143 C-282.33 143.27 -282.33 143.27 -284.02 144.61 C-294.78 152.86 -305.11 156.72 -318.78 155.82 C-330.15 154.23 -340.36 148.51 -348 140 C-357.61 127.27 -359.54 113.4 -357.77 97.97 C-354.85 78.24 -342.43 60.97 -330 46 C-329.51 45.4 -329.03 44.8 -328.53 44.19 C-317.69 30.83 -305.58 18.16 -292 7.57 C-290 6 -290 6 -288 4 C-287.01 4 -286.02 4 -285 4 C-285 3.34 -285 2.68 -285 2 C-284.37 2.08 -283.75 2.15 -283.1 2.23 C-266.08 4.22 -249.04 5.56 -231.94 6.62 C-231.45 6.66 -231.45 6.66 -228.98 6.81 C-203.29 8.43 -177.61 9.21 -151.88 9.19 C-150.61 9.19 -149.35 9.19 -148.06 9.19 C-114.77 9.15 -81.57 7.9 -48.38 5.5 C-47.55 5.44 -46.72 5.38 -45.86 5.32 C-30.77 4.21 -14.76 -0.51 0 0 Z " fill="#4959FA" transform="translate(539,544)"/>
<path d="M0 0 C0.76 0.91 1.53 1.81 2.31 2.75 C3.03 3.55 3.75 4.35 4.49 5.17 C8.5 9.99 11.57 15.46 14.81 20.81 C15.52 21.98 16.24 23.15 16.95 24.31 C18.39 26.67 19.83 29.03 21.26 31.39 C24.15 36.13 27.07 40.85 30 45.56 C31.06 47.27 32.11 48.98 33.17 50.68 C35.28 54.09 37.4 57.5 39.52 60.91 C45.31 70.25 51.08 79.61 56.81 89 C57.39 89.94 57.96 90.88 58.56 91.85 C61.13 96.08 63.68 100.32 66.16 104.61 C66.55 105.29 66.94 105.97 67.35 106.67 C70.38 113.22 70.06 120.16 67.72 126.82 C65.38 133.04 62.11 138.39 58.5 143.94 C57.15 146.05 55.8 148.17 54.45 150.29 C53.77 151.36 53.08 152.43 52.37 153.53 C49.12 158.62 45.94 163.75 42.75 168.88 C36.82 178.37 30.84 187.82 24.81 197.25 C22.35 201.1 19.92 204.97 17.5 208.84 C17.19 209.34 17.19 209.34 15.6 211.87 C14.4 213.78 13.21 215.69 12.02 217.61 C8.22 223.64 4.43 228.72 -1.75 232.5 C-2.08 232.7 -2.08 232.7 -3.72 233.73 C-8.98 236.45 -15.05 236.49 -20.77 235.32 C-27.3 233.22 -32.8 229.26 -36.08 223.16 C-38.75 216.44 -40.27 210.26 -37.83 203.3 C-33.66 194.3 -27.9 186.05 -22.54 177.74 C-18.68 171.76 -14.89 165.73 -11.12 159.69 C-10.82 159.19 -10.82 159.19 -9.25 156.68 C-4.44 148.98 0.34 141.26 5.1 133.52 C5.6 132.72 6.09 131.91 6.61 131.09 C7.07 130.33 7.53 129.58 8.01 128.8 C9.15 127 10.41 125.26 11.68 123.54 C13.63 120.21 13.91 118.55 13.31 114.75 C11.94 112.09 11.94 112.09 9.88 109.12 C9.05 107.9 8.22 106.67 7.4 105.44 C6.92 104.72 6.44 104 5.95 103.27 C2.5 97.97 -0.73 92.53 -4 87.12 C-4.75 85.89 -5.5 84.65 -6.24 83.42 C-8.4 79.86 -10.54 76.31 -12.69 72.75 C-13.26 71.8 -13.83 70.85 -14.42 69.88 C-17.35 65.02 -20.27 60.16 -23.17 55.29 C-24.26 53.47 -25.35 51.65 -26.44 49.83 C-28.26 46.81 -30.07 43.78 -31.88 40.75 C-32.16 40.28 -32.16 40.28 -33.59 37.9 C-34.11 37.03 -34.63 36.15 -35.17 35.25 C-35.63 34.48 -36.09 33.7 -36.57 32.91 C-39.35 27.55 -39.37 21.65 -38.69 15.75 C-36.5 8.89 -32.81 3.58 -26.69 -0.25 C-18.25 -4.55 -7.74 -6.48 0 0 Z " fill="#E1E6FC" transform="translate(255.6875,199.25)"/>
<path d="M0 0 C0.92 0.41 1.84 0.82 2.79 1.24 C21.02 10.14 30.57 26.39 39 44 C39.33 44.66 39.66 45.32 40 46 C41.32 45.01 42.64 44.02 44 43 C44.66 43.33 45.32 43.66 46 44 C44.01 45.68 42.01 47.35 40 49 C39.27 49.61 38.53 50.22 37.77 50.86 C37 51.48 36.23 52.11 35.44 52.75 C34.71 53.34 33.99 53.94 33.25 54.55 C30.8 56.13 28.87 56.62 26 57 C25.67 56.34 25.34 55.68 25 55 C25.66 54.67 26.32 54.34 27 54 C17.98 55.12 9.61 57.1 1 60 C2.22 59.67 3.43 59.34 4.69 59 C7.87 58.2 10.7 57.79 14 58 C13 60 13 60 9.46 61.18 C7.96 61.61 6.45 62.03 4.94 62.44 C-4.27 64.98 -12.35 67.93 -20.56 72.88 C-21.28 73.3 -21.99 73.72 -22.73 74.15 C-27.33 76.89 -31.69 79.84 -36 83 C-36.66 82.67 -37.32 82.34 -38 82 C-37.67 81.34 -37.34 80.68 -37 80 C-49.88 90.14 -62.32 101.28 -70 116 C-68.68 114.35 -68.68 114.35 -62 106 C-62 109.83 -63.13 110.72 -65.5 113.69 C-70.31 120.09 -73.73 126.97 -77.13 134.19 C-77.97 135.93 -78.87 137.64 -79.77 139.34 C-81 142 -81 142 -80.31 144.25 C-79 146 -79 146 -77 148 C-77.67 148.15 -78.33 148.29 -79.02 148.45 C-86.43 150.25 -92.47 153.11 -99 157 C-99.83 157.48 -100.67 157.95 -101.53 158.44 C-112.63 164.88 -122.01 172.54 -131 181.69 C-131.46 182.15 -131.46 182.15 -133.81 184.49 C-137.77 188.48 -141.22 192.08 -144 197 C-145.2 198.61 -146.4 200.22 -147.62 201.81 C-158.97 217.28 -169.82 236.73 -172.56 255.94 C-173 259 -173 259 -175 262 C-175.75 264.64 -176.43 267.26 -177.06 269.94 C-177.15 270.3 -177.15 270.3 -177.59 272.11 C-178.06 274.07 -178.53 276.04 -179 278 C-179.09 278.35 -179.09 278.35 -179.54 280.1 C-180.24 282.99 -180.33 285.92 -180.52 288.88 C-181 291 -181 291 -182.35 292.34 C-186.59 296.61 -187.34 301.85 -187.34 307.59 C-187.32 308.38 -187.31 309.18 -187.29 310 C-187.29 310.83 -187.28 311.66 -187.28 312.52 C-187.26 315.16 -187.23 317.8 -187.19 320.44 C-187.17 322.24 -187.16 324.04 -187.15 325.83 C-187.11 330.22 -187.06 334.61 -187 339 C-187.33 339 -187.66 339 -188 339 C-189.13 330.29 -189.24 321.58 -189.25 312.81 C-189.25 312.06 -189.25 311.31 -189.25 310.54 C-189.19 263.71 -173.95 215.78 -141.23 181.35 C-139.24 179.25 -137.4 177.1 -135.56 174.88 C-124.63 162.37 -109.67 153.56 -95.04 146.04 C-94.71 145.87 -94.71 145.87 -93.03 145 C-91.65 144.32 -90.25 143.69 -88.83 143.1 C-85.09 141.5 -82.75 140.28 -80.91 136.55 C-80.41 135.29 -79.94 134.03 -79.5 132.75 C-79.37 132.43 -79.37 132.43 -78.74 130.78 C-78.14 129.2 -77.56 127.6 -77 126 C-77.63 125.36 -78.26 124.71 -78.91 124.05 C-94.64 107.44 -103.45 87.63 -103.37 64.61 C-102.83 45.36 -94.29 27.59 -80.95 13.9 C-58.91 -6.94 -27.46 -12.87 0 0 Z " fill="#7B95FC" transform="translate(197,15)"/>
<path d="M0 0 C1.2 -0.01 2.4 -0.01 3.64 -0.02 C4.94 -0.02 6.24 -0.02 7.58 -0.01 C8.98 -0.02 10.38 -0.02 11.77 -0.03 C15.56 -0.04 19.34 -0.04 23.12 -0.04 C26.29 -0.04 29.45 -0.04 32.61 -0.05 C40.08 -0.06 47.55 -0.06 55.01 -0.05 C62.7 -0.05 70.39 -0.06 78.08 -0.08 C84.7 -0.1 91.31 -0.11 97.92 -0.1 C101.87 -0.1 105.81 -0.1 109.76 -0.12 C113.47 -0.13 117.18 -0.13 120.89 -0.12 C122.9 -0.11 124.9 -0.12 126.9 -0.13 C135.45 -0.09 142.89 0.55 149.52 6.63 C154.49 12.48 156.78 18.87 156.38 26.52 C155.12 33.73 151.59 39.33 146.04 44.01 C138.18 48.62 131.05 48.7 122.12 48.68 C120.73 48.69 119.35 48.7 117.97 48.71 C114.23 48.73 110.49 48.73 106.75 48.73 C103.62 48.73 100.49 48.74 97.35 48.75 C89.96 48.77 82.57 48.77 75.18 48.76 C67.58 48.76 59.97 48.78 52.37 48.81 C45.82 48.85 39.27 48.86 32.72 48.85 C28.82 48.85 24.92 48.86 21.01 48.88 C17.34 48.9 13.67 48.9 10 48.88 C8.02 48.88 6.05 48.9 4.07 48.92 C-4.72 48.83 -11.63 47.33 -18.27 41.28 C-23.21 36.16 -24.78 31.52 -25.47 24.45 C-25.19 16.84 -22.26 10.91 -16.72 5.76 C-11.63 1.37 -6.66 0.01 0 0 Z " fill="#D8E3FC" transform="translate(419.0965270996094,378.7393035888672)"/>
<path d="M0 0 C0.83 0 1.65 0.01 2.5 0.01 C9.63 0.13 16.31 1.07 22.7 4.39 C24.62 5.31 24.62 5.31 28 5.69 C32.15 6.4 34.26 7.83 37.62 10.31 C38.49 10.81 39.36 11.3 40.25 11.81 C43.94 14.14 46.23 16.14 47.62 20.31 C48.2 20.83 48.78 21.34 49.38 21.88 C52.7 25.48 56.62 31.25 56.62 36.31 C57.28 36.31 57.94 36.31 58.62 36.31 C61.45 46.14 63.4 55 62.62 65.31 C62.55 66.52 62.48 67.72 62.41 68.96 C61.5 78.86 58.47 85.8 53.62 94.31 C53.45 94.67 53.45 94.67 52.56 96.46 C49.93 101.67 45.81 105.37 41.62 109.31 C40.97 109.97 40.31 110.63 39.62 111.31 C38.6 110.15 37.58 108.98 36.56 107.81 C35.92 107.08 35.27 106.34 34.61 105.58 C33.39 104.19 32.18 102.79 30.99 101.39 C14.61 82.24 -4.61 68.9 -28.41 60.52 C-31.38 59.31 -31.38 59.31 -34.53 57.31 C-39.27 54.52 -44.45 53.91 -49.81 53.06 C-50.83 52.89 -51.85 52.72 -52.9 52.54 C-55.39 52.12 -57.88 51.71 -60.38 51.31 C-60.07 49.88 -59.76 48.45 -59.45 47.02 C-59.28 46.22 -59.11 45.43 -58.93 44.6 C-58.13 41.29 -56.92 38.33 -55.38 35.31 C-55.15 34.86 -55.15 34.86 -54.01 32.6 C-47.77 21.03 -39.14 12.23 -27.38 6.31 C-26.61 5.92 -25.85 5.54 -25.07 5.14 C-16.96 1.27 -8.94 -0.06 0 0 Z " fill="#627AFB" transform="translate(614.375,20.6875)"/>
<path d="M0 0 C13.25 10.41 22.1 23.36 27.1 39.44 C27.35 40.22 27.59 41 27.84 41.8 C32.78 61.34 28.21 82.42 18.28 99.54 C14.64 105.39 10.42 111.46 5.29 116.06 C4.9 116.52 4.51 116.97 4.1 117.44 C4.41 121.12 4.41 121.12 5.1 124.44 C4.11 124.11 3.12 123.78 2.1 123.44 C2.1 122.45 2.1 121.46 2.1 120.44 C1.44 120.44 0.78 120.44 0.1 120.44 C-0.89 117.8 -1.88 115.16 -2.9 112.44 C-2.24 112.44 -1.58 112.44 -0.9 112.44 C-1.56 110.79 -2.22 109.14 -2.9 107.44 C-2.37 106.94 -1.84 106.44 -1.29 105.93 C3.09 101.72 6.45 97.89 9.1 92.44 C9.52 91.62 9.94 90.8 10.38 89.95 C13.81 83.23 16.35 77.38 17.23 69.81 C17.31 69.1 17.39 68.39 17.48 67.66 C18.55 57.94 18.23 49.72 15.76 40.19 C15.1 37.44 15.1 37.44 15.1 34.44 C14.44 34.44 13.78 34.44 13.1 34.44 C12.63 33.45 12.16 32.46 11.68 31.45 C11.05 30.15 10.42 28.86 9.79 27.56 C9.48 26.91 9.17 26.26 8.85 25.59 C7.21 22.24 6.27 20.55 3.1 18.44 C3.1 17.45 3.1 16.46 3.1 15.44 C2.44 15.11 2.44 15.11 -0.9 13.44 C-0.9 12.78 -0.9 12.12 -0.9 11.44 C-1.5 11.33 -2.09 11.23 -2.71 11.12 C-5.23 10.33 -6.09 9.32 -7.9 7.44 C-10.46 5.79 -12.2 5.4 -15.27 5 C-19.08 4.41 -21.47 3.15 -24.9 1.44 C-41.9 -3.63 -59.14 -0.85 -74.53 7.42 C-90.6 17.04 -98.57 32.1 -103.9 49.44 C-103.11 49.47 -102.32 49.51 -101.51 49.55 C-93.38 50.04 -85.78 51.39 -77.9 53.44 C-77.9 54.76 -77.9 56.08 -77.9 57.44 C-78.48 57.28 -78.48 57.28 -81.4 56.5 C-84.33 55.76 -87.2 55.22 -90.21 54.88 C-93.9 54.44 -93.9 54.44 -96.9 53.44 C-101.01 52.46 -105.06 52.14 -109.27 51.88 C-109.91 51.83 -109.91 51.83 -113.11 51.62 C-116.9 51.44 -116.9 51.44 -120.25 51.61 C-124.34 51.42 -126.55 50.48 -130.14 48.55 C-131.29 47.94 -132.44 47.33 -133.62 46.71 C-134.82 46.05 -136.02 45.4 -137.21 44.75 C-138.39 44.12 -139.58 43.48 -140.76 42.85 C-143.06 41.63 -145.36 40.4 -147.65 39.16 C-152.03 36.84 -156.45 34.62 -160.9 32.44 C-160.9 31.78 -160.9 31.12 -160.9 30.44 C-155.81 31.08 -151.53 33.3 -146.96 35.5 C-146.12 35.9 -145.29 36.3 -144.42 36.71 C-138.01 39.8 -131.86 43.21 -125.78 46.91 C-123.06 48.35 -120.93 49.04 -117.9 49.44 C-117.84 48.9 -117.77 48.37 -117.71 47.81 C-114.68 28.45 -102.8 10.29 -87.15 -1.19 C-60.25 -19.23 -26.32 -19.5 0 0 Z " fill="#9DAFFC" transform="translate(657.8984375,22.5625)"/>
<path d="M0 0 C0.99 0 1.98 0 3 0 C2.05 5.02 -0.62 9.39 -2.92 13.91 C-4 17 -4 17 -3.3 19.28 C-2 21 -2 21 0 23 C-0.33 23.07 -0.33 23.07 -2.02 23.45 C-9.43 25.25 -15.47 28.11 -22 32 C-22.83 32.48 -23.67 32.95 -24.53 33.44 C-35.63 39.88 -45.01 47.54 -54 56.69 C-54.46 57.15 -54.46 57.15 -56.81 59.49 C-60.77 63.48 -64.22 67.08 -67 72 C-68.2 73.61 -69.4 75.22 -70.62 76.81 C-81.97 92.28 -92.82 111.73 -95.56 130.94 C-96 134 -96 134 -98 137 C-98.75 139.64 -99.43 142.26 -100.06 144.94 C-100.24 145.65 -100.41 146.37 -100.59 147.11 C-101.06 149.07 -101.53 151.04 -102 153 C-102.09 153.35 -102.09 153.35 -102.54 155.1 C-103.24 157.99 -103.33 160.92 -103.52 163.88 C-104 166 -104 166 -105.35 167.34 C-109.59 171.61 -110.34 176.85 -110.34 182.59 C-110.32 183.38 -110.31 184.18 -110.29 185 C-110.29 185.83 -110.28 186.66 -110.28 187.52 C-110.26 190.16 -110.23 192.8 -110.19 195.44 C-110.17 197.24 -110.16 199.04 -110.15 200.83 C-110.11 205.22 -110.06 209.61 -110 214 C-110.33 214 -110.66 214 -111 214 C-112.13 205.29 -112.24 196.58 -112.25 187.81 C-112.25 187.06 -112.25 186.31 -112.25 185.54 C-112.19 138.71 -96.95 90.78 -64.23 56.35 C-62.24 54.25 -60.4 52.1 -58.56 49.88 C-47.63 37.37 -32.67 28.56 -18.04 21.04 C-17.38 20.7 -16.71 20.36 -16.03 20 C-14.65 19.32 -13.25 18.69 -11.83 18.1 C-7.22 16.12 -5.04 14.43 -3.16 9.72 C-2.94 9.09 -2.73 8.46 -2.5 7.81 C-2.37 7.49 -2.37 7.49 -1.74 5.87 C0 1.34 0 1.34 0 0 Z " fill="#A7ABFC" transform="translate(120,140)"/>
<path d="M0 0 C0.68 0 1.37 0 2.07 0 C18.36 0.06 34 1.3 50 4.19 C51.53 4.46 53.06 4.72 54.59 4.99 C77.22 8.96 77.22 8.96 82.12 11.25 C82.12 11.58 82.12 11.91 82.12 12.25 C76.08 11.89 70.24 11.13 64.31 9.88 C38.79 4.61 12.12 1.84 -13.88 4.25 C-14.91 4.34 -15.94 4.43 -17.01 4.52 C-54.23 7.81 -88.69 18.35 -118.75 41.13 C-125.9 46.39 -133.28 48.35 -141.94 49.75 C-146.74 50.6 -151.35 51.46 -155.85 53.39 C-157.45 54.07 -159.1 54.67 -160.75 55.23 C-168.52 57.96 -175.01 61.59 -181.78 66.16 C-183.65 67.43 -185.55 68.65 -187.5 69.79 C-198.98 76.88 -212.03 89.91 -218.76 101.58 C-219.88 103.25 -219.88 103.25 -222.88 105.25 C-218.31 92.21 -204.73 78.56 -193.88 70.25 C-193.22 70.25 -192.56 70.25 -191.88 70.25 C-191.88 69.59 -191.88 68.93 -191.88 68.25 C-189.84 66.75 -187.83 65.4 -185.69 64.06 C-185.05 63.66 -184.42 63.27 -183.77 62.85 C-169.48 53.95 -156.56 48.59 -139.88 46.25 C-131.19 45.03 -125.23 43.51 -118.62 37.63 C-105.16 25.96 -89.51 18.3 -72.88 12.25 C-71.81 11.83 -70.75 11.41 -69.65 10.97 C-59.61 7.11 -49.45 5.07 -38.88 3.25 C-38.46 3.17 -38.46 3.17 -36.36 2.79 C-24.25 0.6 -12.28 -0.02 0 0 Z " fill="#D2D3FB" transform="translate(359.875,35.75)"/>
<path d="M0 0 C0.16 0.33 0.16 0.33 1 2 C-0.77 7.3 -2.31 9.74 -7 13 C-9.91 14.24 -9.91 14.24 -13.06 15.31 C-37.48 24.27 -57.98 45.36 -73 66 C-73.57 66.77 -74.13 67.54 -74.71 68.34 C-83.03 80.2 -88.37 93.91 -93.12 107.5 C-93.48 108.51 -93.84 109.51 -94.21 110.55 C-96.03 115.74 -97.42 120.53 -98 126 C-98.66 128.33 -99.33 130.67 -100 133 C-101.62 139.96 -102.48 146.88 -103.06 154 C-103.22 155.85 -103.37 157.71 -103.54 159.56 C-103.6 160.37 -103.67 161.17 -103.73 162 C-104 164 -104 164 -105 166 C-105.15 167.52 -105.25 169.04 -105.32 170.57 C-105.34 171.02 -105.34 171.02 -105.44 173.29 C-105.48 174.22 -105.52 175.16 -105.56 176.12 C-105.61 177.07 -105.65 178.01 -105.69 178.99 C-105.8 181.33 -105.9 183.66 -106 186 C-106.33 186 -106.66 186 -107 186 C-108.61 167.97 -107.72 150.74 -104 133 C-103.87 132.37 -103.75 131.73 -103.62 131.08 C-100.19 113.94 -95.13 98.21 -86.93 82.75 C-85.57 80.19 -84.29 77.6 -83 75 C-82.33 73.67 -81.67 72.33 -81 71 C-80.34 71 -79.68 71 -79 71 C-78.94 70.71 -78.94 70.71 -78.66 69.26 C-76.33 61.29 -69.16 54.3 -64 48 C-63.34 47.15 -62.67 46.29 -61.99 45.41 C-60.19 43.23 -58.4 41.45 -56.25 39.62 C-52.12 36.11 -52.12 36.11 -50.12 34.28 C-44.53 29.16 -38.39 25.06 -32 21 C-31.05 20.39 -30.09 19.79 -29.11 19.16 C-22.41 15 -22.41 15 -19 15 C-19 14.34 -19 13.68 -19 13 C-18.05 12.73 -17.09 12.46 -16.11 12.19 C-4.59 8.59 -4.59 8.59 -1.62 3.69 C-0.6 1.57 -0.6 1.57 0 0 Z " fill="#B2B2FB" transform="translate(128,157)"/>
<path d="M0 0 C0.99 0 1.98 0 3 0 C2.05 5.02 -0.62 9.39 -2.92 13.91 C-4 17 -4 17 -3.3 19.28 C-2 21 -2 21 0 23 C-0.33 23.07 -0.33 23.07 -2.02 23.45 C-9.43 25.25 -15.47 28.11 -22 32 C-22.83 32.48 -23.67 32.95 -24.53 33.44 C-35.63 39.88 -45.01 47.54 -54 56.69 C-54.93 57.61 -55.85 58.53 -56.81 59.49 C-60.79 63.5 -64.11 67.13 -67 72 C-67.33 72.16 -67.33 72.16 -69 73 C-69 71.35 -69 69.7 -69 68 C-68.5 67.84 -68.5 67.84 -66 67 C-64.81 64.44 -64.81 64.44 -64 62 C-67.44 63.53 -70.12 65.6 -73 68 C-71.48 64.49 -69.4 62.05 -66.81 59.25 C-64 56.2 -61.27 53.13 -58.62 49.94 C-47.66 37.41 -32.7 28.58 -18.04 21.04 C-17.38 20.7 -16.71 20.36 -16.03 20 C-14.65 19.32 -13.25 18.69 -11.83 18.1 C-7.22 16.12 -5.04 14.43 -3.16 9.72 C-2.94 9.09 -2.73 8.46 -2.5 7.81 C-2.37 7.49 -2.37 7.49 -1.74 5.87 C0 1.34 0 1.34 0 0 Z M-70 73 C-70 73.99 -70 74.98 -70 76 C-70.66 76.66 -71.32 77.32 -72 78 C-71.12 74.12 -71.12 74.12 -70 73 Z " fill="#C3C5FC" transform="translate(120,140)"/>
<path d="M0 0 C0.92 0.41 1.84 0.82 2.79 1.24 C11.15 5.32 17.43 11.54 24 18 C23.67 18.66 23.34 19.32 23 20 C22.58 19.6 22.17 19.2 21.74 18.79 C12.68 10.42 0.3 1.15 -12 -1 C-13.16 -1.5 -14.33 -2 -15.52 -2.51 C-20.41 -4.37 -24.94 -4.41 -30.12 -4.31 C-30.99 -4.32 -31.86 -4.32 -32.75 -4.32 C-37.58 -4.28 -41.45 -3.79 -46 -2 C-48 -1.65 -50 -1.31 -52 -1 C-55 0 -55 0 -56 2 C-55.18 1.78 -54.36 1.57 -53.51 1.34 C-46.53 -0.4 -40.19 -1.44 -33 -1 C-36.2 1.13 -37.71 1.36 -41.44 1.81 C-61.41 4.92 -75.96 18.59 -88 34 C-89.14 36.12 -89.14 36.12 -89.81 37.88 C-90.2 38.91 -90.6 39.94 -91 41 C-91.99 41 -92.98 41 -94 41 C-92.68 38.36 -91.36 35.72 -90 33 C-93.44 36.44 -94.35 39.23 -95.94 43.72 C-97 46 -97 46 -100 48 C-99.43 42.82 -97.77 38.83 -95.44 34.25 C-95.08 33.55 -94.72 32.84 -94.36 32.12 C-85.2 14.59 -69.48 2.1 -50.72 -4.03 C-33.31 -8.58 -16.39 -7.68 0 0 Z " fill="#C7D3FC" transform="translate(197,15)"/>
<path d="M0 0 C-0.33 0.66 -0.66 1.32 -1 2 C-2.98 1.67 -4.96 1.34 -7 1 C-7 0.34 -7 -0.32 -7 -1 C-7.99 -0.67 -8.98 -0.34 -10 0 C-12.35 -0.6 -14.68 -1.28 -17 -2 C-21.64 -3.25 -26.25 -4.23 -31 -5 C-31.99 -5.33 -32.98 -5.66 -34 -6 C-35.07 -5.98 -36.14 -5.96 -37.25 -5.94 C-41.31 -6.01 -44.17 -6.75 -48 -8 C-48 -8.66 -48 -9.32 -48 -10 C-49.07 -9.81 -50.14 -9.63 -51.25 -9.44 C-54.64 -9.04 -55.91 -9.06 -59 -10 C-62.7 -10.53 -66.2 -11 -69.94 -11 C-70.62 -11 -71.3 -11 -72 -11 C-72.33 -11.33 -72.66 -11.66 -73 -12 C-75.53 -12.05 -78.04 -12.04 -80.56 -12 C-85.07 -11.95 -89.47 -11.92 -93.94 -12.56 C-94.95 -12.71 -95.96 -12.85 -97 -13 C-97.33 -12.67 -97.66 -12.34 -98 -12 C-99.92 -11.92 -101.83 -11.92 -103.75 -11.94 C-104.92 -11.95 -106.08 -11.95 -107.28 -11.96 C-109.76 -11.99 -112.24 -12.01 -114.72 -12.04 C-115.88 -12.05 -117.05 -12.05 -118.25 -12.06 C-119.33 -12.07 -120.41 -12.09 -121.52 -12.1 C-124 -12 -124 -12 -125 -11 C-126.52 -10.98 -128.04 -11.01 -129.56 -11.06 C-134.44 -11.12 -138.31 -10.31 -143 -9 C-144.2 -8.84 -145.39 -8.67 -146.62 -8.5 C-150 -8 -150 -8 -153 -7 C-156.33 -5.89 -159.53 -5.49 -163 -5 C-177.79 -1.45 -191.5 5.64 -204.82 12.78 C-208.84 14.93 -212.91 16.98 -217 19 C-217 18.01 -217 17.02 -217 16 C-152.14 -21.82 -70.5 -24.21 0 0 Z " fill="#D6DBFC" transform="translate(462,39)"/>
<path d="M0 0 C0.66 1.82 0.66 1.82 1 4 C-0.96 6.28 -2.86 8.23 -5.06 10.25 C-9.92 14.89 -14.18 19.44 -18 25 C-17.03 24.22 -16.06 23.43 -15.06 22.62 C-14.52 22.18 -13.97 21.74 -13.41 21.29 C-12 20 -12 20 -11 18 C-10.01 18.33 -9.02 18.66 -8 19 C-8.77 19.87 -9.55 20.74 -10.34 21.64 C-16.12 28.22 -21.45 34.74 -26.09 42.18 C-27.62 44.45 -29.13 46.27 -30.96 48.27 C-34.41 52.21 -36.29 56.49 -38.25 61.31 C-38.92 62.91 -39.59 64.51 -40.27 66.11 C-40.55 66.81 -40.84 67.51 -41.13 68.23 C-42 70 -42 70 -44 72 C-44.32 74.52 -44.32 74.52 -44.41 77.66 C-44.45 78.79 -44.49 79.91 -44.53 81.06 C-44.56 82.24 -44.59 83.41 -44.62 84.62 C-44.66 85.81 -44.7 86.99 -44.74 88.21 C-44.84 91.14 -44.92 94.07 -45 97 C-49.78 88.38 -47.61 74.49 -45.18 65.25 C-40.12 48.62 -30.01 34.2 -19 21 C-18.73 20.67 -18.73 20.67 -17.37 19.03 C-11.86 12.39 -6.24 5.96 0 0 Z " fill="#9BA2FB" transform="translate(228,569)"/>
<path d="M0 0 C0.66 0.33 1.32 0.66 2 1 C-0.5 3.51 -3.01 6.01 -5.57 8.46 C-6.41 9.28 -7.26 10.1 -8.12 10.94 C-8.97 11.75 -9.82 12.56 -10.7 13.4 C-13.11 16.13 -14.41 18.74 -16 22 C-17.94 24.31 -17.94 24.31 -20 26.44 C-23.42 30.14 -25.38 33.25 -27 38 C-27.99 38 -28.98 38 -30 38 C-28.68 35.36 -27.36 32.72 -26 30 C-29.44 33.44 -30.35 36.23 -31.94 40.72 C-33 43 -33 43 -36 45 C-35.43 39.82 -33.77 35.83 -31.44 31.25 C-31.08 30.55 -30.72 29.84 -30.36 29.12 C-24.21 17.36 -15.37 6.58 -2.75 1.69 C-1 1 -1 1 0 0 Z " fill="#B6C1FC" transform="translate(133,18)"/>
<path d="M0 0 C0.93 0 1.87 0.01 2.83 0.01 C3.8 0.02 4.77 0.03 5.77 0.04 C6.75 0.04 7.73 0.04 8.75 0.05 C11.17 0.06 13.59 0.08 16.02 0.1 C16.02 0.43 16.02 0.76 16.02 1.1 C12.72 1.26 12.72 1.26 -3.98 2.1 C-3.98 2.76 -3.98 3.42 -3.98 4.1 C-4.87 4.32 -5.76 4.55 -6.67 4.79 C-8.11 5.21 -9.55 5.65 -10.98 6.1 C-11.48 6.25 -11.48 6.25 -13.99 7.03 C-22.39 9.91 -27.81 13.8 -33.98 20.1 C-34.64 20.7 -35.3 21.3 -35.98 21.92 C-43.5 28.87 -46.79 37.54 -49.98 47.1 C-50.64 47.1 -51.3 47.1 -51.98 47.1 C-52.64 54.03 -53.3 60.96 -53.98 68.1 C-54.31 68.1 -54.64 68.1 -54.98 68.1 C-56.03 49.55 -51.31 33.27 -38.98 19.1 C-36.89 16.84 -36.89 16.84 -34.98 15.1 C-34.32 15.1 -33.66 15.1 -32.98 15.1 C-32.98 14.44 -32.98 13.78 -32.98 13.1 C-23.99 5.94 -11.68 -0.07 0 0 Z " fill="#B2BEFC" transform="translate(159.984375,18.90234375)"/>
<path d="M0 0 C1.21 0 2.42 0 3.66 0 C19.05 0.08 33.7 1.4 48.81 4.12 C50.34 4.39 51.87 4.66 53.4 4.93 C76.03 8.9 76.03 8.9 80.94 11.19 C80.94 11.52 80.94 11.85 80.94 12.19 C74.89 11.82 69.05 11.07 63.12 9.81 C33.59 3.72 3.95 2.64 -26.06 4.19 C-18.39 -0.93 -8.86 -0.09 0 0 Z " fill="#CBCAFB" transform="translate(361.0625,35.8125)"/>
<path d="M0 0 C1.21 0 2.43 0.01 3.68 0.01 C6.56 0.03 9.43 0.04 12.31 0.06 C12.31 0.72 12.31 1.38 12.31 2.06 C11.05 2.05 9.78 2.04 8.48 2.03 C6.82 2.02 5.16 2.01 3.5 2 C2.67 1.99 1.83 1.98 0.97 1.97 C0.17 1.97 -0.63 1.97 -1.46 1.96 C-2.2 1.96 -2.93 1.95 -3.69 1.95 C-5.69 2.06 -5.69 2.06 -8.69 3.06 C-10.51 3.13 -12.34 3.15 -14.17 3.12 C-14.71 3.12 -14.71 3.12 -17.45 3.1 C-19.71 3.08 -21.98 3.05 -24.24 3.02 C-25.33 3.02 -26.42 3.01 -27.54 3 C-28.53 2.99 -29.52 2.98 -30.53 2.96 C-33.69 3.06 -33.69 3.06 -37.18 3.56 C-43.39 4.38 -49.64 4.23 -55.89 4.23 C-57.26 4.23 -58.63 4.24 -60 4.24 C-62.85 4.25 -65.71 4.25 -68.56 4.25 C-72.21 4.25 -75.87 4.26 -79.52 4.28 C-82.34 4.29 -85.16 4.29 -87.98 4.29 C-89.99 4.29 -91.99 4.3 -93.99 4.31 C-95.2 4.31 -96.42 4.31 -97.67 4.31 C-98.2 4.31 -98.2 4.31 -100.91 4.31 C-103.68 4.06 -105.33 3.49 -107.69 2.06 C-106.93 2.05 -106.18 2.04 -105.4 2.03 C-98.15 1.93 -90.91 1.83 -83.66 1.72 C-79.94 1.67 -76.22 1.62 -72.5 1.57 C-56.55 1.35 -40.62 1.04 -24.68 0.4 C-16.45 0.07 -8.24 -0.06 0 0 Z " fill="#2727EB" transform="translate(460.6875,551.9375)"/>
<path d="M0 0 C0.33 0 0.66 0 1 0 C1 1.65 1 3.3 1 5 C1.99 5 2.98 5 4 5 C4.19 10.5 4.33 14.91 2 20 C2.02 20.87 2.04 21.73 2.06 22.62 C1.98 25.68 1.15 25.93 -1 28 C-3.88 33.51 -4.41 37.84 -4.29 44 C-4.29 44.83 -4.28 45.66 -4.28 46.52 C-4.26 49.16 -4.23 51.8 -4.19 54.44 C-4.17 56.24 -4.16 58.04 -4.15 59.83 C-4.11 64.22 -4.06 68.61 -4 73 C-4.33 73 -4.66 73 -5 73 C-6.13 64.29 -6.24 55.58 -6.25 46.81 C-6.25 46.07 -6.25 45.32 -6.26 44.56 C-6.26 11.71 -6.26 11.71 -1 1 C-0.67 0.67 -0.34 0.34 0 0 Z " fill="#A0A8FB" transform="translate(14,281)"/>
<path d="M0 0 C-3.02 1.73 -5.25 2.26 -8.72 2.34 C-9.18 2.36 -9.18 2.36 -11.51 2.43 C-12.01 2.44 -12.01 2.44 -14.5 2.5 C-41.97 3.42 -67.47 7.67 -93 18 C-93.63 18.25 -94.26 18.51 -94.91 18.77 C-101.64 21.52 -108.13 24.4 -114.33 28.21 C-114.6 28.34 -114.6 28.34 -116 29 C-116.66 28.67 -117.32 28.34 -118 28 C-82.62 4.98 -41.39 -0.91 0 0 Z " fill="#D8DBFC" transform="translate(370,30)"/>
<path d="M0 0 C0.66 0.33 1.32 0.66 2 1 C-1.75 6.88 -1.75 6.88 -4 8 C-4.68 10 -5.34 12 -6 14 C-9.15 21.11 -13.17 27.9 -18 34 C-18.16 33.5 -18.16 33.5 -19 31 C-20.32 31.99 -21.64 32.98 -23 34 C-23.66 33.67 -24.32 33.34 -25 33 C-19.88 19.28 -11.63 8.64 0 0 Z " fill="#B2B2FB" transform="translate(56,200)"/>
<path d="M0 0 C1.33 3.98 0.01 6.48 -1.38 10.25 C-3.18 15.19 -4.36 19.74 -5 25 C-5.66 27.33 -6.33 29.67 -7 32 C-8.62 38.96 -9.48 45.88 -10.06 53 C-10.22 54.85 -10.37 56.71 -10.54 58.56 C-10.6 59.37 -10.67 60.17 -10.73 61 C-11 63 -11 63 -12 65 C-12.15 66.52 -12.25 68.04 -12.32 69.57 C-12.34 70.02 -12.34 70.02 -12.44 72.29 C-12.46 72.75 -12.46 72.75 -12.56 75.12 C-12.61 76.07 -12.65 77.01 -12.69 77.99 C-12.8 80.33 -12.9 82.66 -13 85 C-13.33 85 -13.66 85 -14 85 C-15.61 66.96 -14.71 49.74 -11 32 C-10.87 31.32 -10.74 30.65 -10.6 29.95 C-8.79 20.63 -6.88 12.27 -2 4 C-1.32 2.67 -0.65 1.34 0 0 Z " fill="#9DA6FB" transform="translate(35,258)"/>
<path d="M0 0 C-1.32 0.66 -1.32 0.66 -8 4 C-4.78 4 -2.76 3.78 0.25 3 C4.62 1.97 8.53 1.84 13 2 C10.25 3.84 8.59 4.52 5.46 5.33 C5.02 5.45 5.02 5.45 2.78 6.05 C1.84 6.3 0.9 6.55 -0.06 6.81 C-15.53 11.15 -24.69 17.35 -35.73 28.84 C-38 31 -38 31 -40 31 C-36.89 24.27 -33.17 19.93 -27.12 15.81 C-26.83 15.6 -26.83 15.6 -25.31 14.53 C-22.47 12.55 -19.75 10.88 -16.64 9.34 C-13.76 7.88 -13.04 7 -12 4 C-12.99 3.67 -13.98 3.34 -15 3 C-13.26 2.3 -11.5 1.61 -9.75 0.94 C-8.78 0.55 -7.8 0.17 -6.8 -0.22 C-4 -1 -4 -1 0 0 Z " fill="#C7CCFC" transform="translate(598,11)"/>
<path d="M0 0 C0.99 0 1.98 0 3 0 C3.33 2.97 3.66 5.94 4 9 C4.33 9 4.66 9 5 9 C5.46 14.85 5.9 20.7 6.34 26.55 C6.49 28.53 6.64 30.51 6.79 32.5 C7.71 44.14 8.26 55.37 7 67 C6.67 67 6.34 67 6 67 C5.45 61.03 4.89 55.05 4.35 49.08 C4.16 47.06 3.97 45.03 3.78 43.01 C2.78 32.13 1.81 21.28 1.24 10.38 C0.99 6.88 0.53 3.46 0 0 Z " fill="#6E83FB" transform="translate(257,684)"/>
<path d="M0 0 C0.24 7.57 -0.56 14.93 -1.54 22.43 C-1.81 24.49 -2.06 26.56 -2.31 28.63 C-4.66 47.27 -4.66 47.27 -11.44 54.5 C-12.2 55.34 -12.96 56.17 -13.75 57.03 C-15.95 58.96 -17.14 59.64 -20 60 C-19.67 59.01 -19.34 58.02 -19 57 C-18.34 57 -17.68 57 -17 57 C-17 56.34 -17 55.68 -17 55 C-16.34 55 -15.68 55 -15 55 C-14.67 54.01 -14.34 53.02 -14 52 C-13.01 52 -12.02 52 -11 52 C-10.86 51.24 -10.71 50.47 -10.56 49.69 C-10 47 -10 47 -9 44 C-8.67 43.84 -8.67 43.84 -7 43 C-6.98 42.41 -6.96 41.82 -6.94 41.21 C-6.84 38.54 -6.73 35.86 -6.62 33.19 C-6.61 32.72 -6.61 32.72 -6.53 30.37 C-6.51 29.93 -6.51 29.93 -6.41 27.67 C-6.38 26.85 -6.35 26.02 -6.32 25.18 C-6 23 -6 23 -4 20 C-3.8 17.74 -3.8 17.74 -3.88 15.31 C-3.88 14.91 -3.88 14.91 -3.93 12.86 C-3.95 12.25 -3.98 11.63 -4 11 C-3.34 11 -2.68 11 -2 11 C-2.33 7.7 -2.66 4.4 -3 1 C-1 0 -1 0 0 0 Z " fill="#7C9AFC" transform="translate(516,749)"/>
<path d="M0 0 C5.77 1.46 10.85 4.08 16 7 C17.33 7.67 18.66 8.34 20 9 C20 9.66 20 10.32 20 11 C20.66 11 21.32 11 22 11 C22 11.66 22 12.32 22 13 C22.6 13.27 23.2 13.54 23.81 13.81 C25.99 14.99 27.27 16.27 29 18 C29.99 18.33 30.98 18.66 32 19 C34.25 21.81 34.25 21.81 36 25 C35.61 27.2 35.61 27.2 35 29 C34.47 28.31 33.94 27.63 33.39 26.92 C32.68 26.02 31.98 25.12 31.25 24.19 C30.55 23.29 29.86 22.4 29.14 21.48 C27 19 27 19 24.73 17.3 C24.45 17.09 24.45 17.09 23 16 C23 15.34 23 14.68 23 14 C21.68 13.67 20.36 13.34 19 13 C19 12.34 19 11.68 19 11 C18.01 11 17.02 11 16 11 C16 10.34 16 9.68 16 9 C15.28 8.87 14.55 8.75 13.81 8.62 C11.05 8.01 8.67 7.13 6.06 6.06 C-4.65 2.11 -15.69 1.66 -27 2 C-20.05 -2.63 -8.04 -0.94 0 0 Z " fill="#8DA6FA" transform="translate(183,20)"/>
<path d="M0 0 C0.99 0.33 1.98 0.66 3 1 C3.7 2.75 3.7 2.75 4.12 5 C4.27 5.72 4.42 6.44 4.57 7.19 C5.79 15.19 6.14 22.95 6.1 31.04 C6.1 32.15 6.09 33.27 6.09 34.43 C6.09 37.97 6.08 41.52 6.06 45.06 C6.06 47.48 6.05 49.89 6.05 52.31 C6.04 58.21 6.02 64.1 6 70 C5.34 70 4.68 70 4 70 C3.98 69.01 3.96 68.03 3.94 67.01 C3.23 32.67 3.23 32.67 1.23 16.05 C0.63 10.71 0.34 5.35 0 0 Z " fill="#2833FA" transform="translate(516,613)"/>
<path d="M0 0 C0.66 0 1.32 0 2 0 C0.46 3.62 -1.73 5.99 -4.44 8.81 C-10.57 15.45 -15.8 22.62 -21 30 C-21.61 30.86 -22.22 31.72 -22.85 32.61 C-28.23 40.4 -32.04 48.61 -35.11 57.55 C-35.93 59.81 -36.88 61.88 -38 64 C-40.33 58.13 -36.31 51.46 -34 46 C-32.2 42.52 -30.15 39.27 -28 36 C-27.48 35.14 -26.95 34.28 -26.41 33.4 C-19.6 22.3 -11.45 11.02 -2 2 C-1.34 2 -0.68 2 0 2 C0 1.34 0 0.68 0 0 Z " fill="#99A2FC" transform="translate(231,579)"/>
<path d="M0 0 C12.65 -0.54 23.77 0.77 36 4 C37.16 4.28 38.31 4.57 39.5 4.86 C46.69 6.69 46.69 6.69 49 9 C49.99 9.33 50.98 9.66 52 10 C55 11 55 11 57 13 C52.22 11.98 47.51 10.89 42.81 9.56 C28.55 5.68 14.71 4.06 0 3 C0 2.01 0 1.02 0 0 Z " fill="#B4B2FA" transform="translate(536,84)"/>
<path d="M0 0 C0.16 0.33 0.16 0.33 1 2 C-0.77 7.3 -2.31 9.74 -7 13 C-9.91 14.24 -9.91 14.24 -13.06 15.31 C-20.61 18.08 -27.78 21.7 -34.14 26.67 C-36.65 28.46 -38.98 28.66 -42 29 C-38.72 25.42 -35.12 22.91 -31.06 20.31 C-30.45 19.91 -29.85 19.51 -29.22 19.09 C-25.85 16.92 -23.01 15.45 -19 15 C-19 14.34 -19 13.68 -19 13 C-18.52 12.87 -18.52 12.87 -16.11 12.19 C-4.59 8.59 -4.59 8.59 -1.62 3.69 C-0.6 1.57 -0.6 1.57 0 0 Z " fill="#CECCFC" transform="translate(128,157)"/>
<path d="M0 0 C1.23 3.7 1.24 7.21 1.38 11.06 C1.78 20.53 2.82 29.88 3.98 39.28 C4.11 40.34 4.24 41.4 4.38 42.49 C4.5 43.43 4.62 44.38 4.74 45.35 C4.99 47.92 5.05 50.42 5 53 C1.55 49.37 1.01 45.28 0.31 40.5 C0.25 40.08 0.25 40.08 -0.07 37.92 C-1.66 25.82 -1.83 13.18 -1 1 C-0.67 0.67 -0.34 0.34 0 0 Z " fill="#8193FA" transform="translate(23,322)"/>
<path d="M0 0 C5.09 0.65 9.37 2.86 13.94 5.06 C14.36 5.26 14.36 5.26 16.48 6.27 C22.89 9.36 29.03 12.77 35.12 16.47 C37.83 17.91 39.97 18.6 43 19 C43.16 18.5 43.16 18.5 44 16 C44 17.32 44 18.64 44 20 C38.5 21.19 35.69 20.89 30.76 18.21 C30.19 17.9 30.19 17.9 27.28 16.36 C26.08 15.7 24.88 15.04 23.69 14.38 C22.5 13.74 21.32 13.1 20.13 12.46 C17.83 11.23 15.54 9.99 13.24 8.74 C8.88 6.4 4.45 4.18 0 2 C0 1.34 0 0.68 0 0 Z " fill="#C7CBFC" transform="translate(497,53)"/>
<path d="M0 0 C0.66 0 1.32 0 2 0 C-0.35 6.15 -3.27 11.58 -7 17 C-16.35 30.87 -16.35 30.87 -20.12 37.88 C-22.13 41.22 -24.15 43.38 -27 46 C-26.43 41.83 -25.05 39.11 -22.75 35.61 C-22.09 34.57 -21.42 33.54 -20.73 32.48 C-20.01 31.39 -19.3 30.31 -18.56 29.19 C-17.47 27.5 -16.37 25.82 -15.28 24.14 C-14.19 22.47 -13.11 20.8 -12.02 19.13 C-8.89 14.28 -5.88 9.37 -2.92 4.42 C-2 2.91 -1.01 1.45 0 0 Z " fill="#5A8CFD" transform="translate(300,364)"/>
<path d="M0 0 C-3.2 2.13 -4.71 2.36 -8.44 2.81 C-23.66 5.18 -34.67 13.01 -45 24 C-45.33 23.34 -45.66 22.68 -46 22 C-43.69 19.31 -41.35 16.65 -39 14 C-38.24 13.11 -37.47 12.23 -36.69 11.31 C-31.38 6.75 -24.71 3.9 -18 2 C-16.76 1.63 -15.53 1.26 -14.25 0.88 C-9.52 -0.3 -4.85 -0.18 0 0 Z " fill="#CDD6FC" transform="translate(164,14)"/>
<path d="M0 0 C2 0 4 0 6 0 C6.19 2.31 6.19 2.31 6 5 C5.02 6.02 4.02 7.02 3 8 C0.12 13.51 -0.41 17.84 -0.29 24 C-0.29 24.83 -0.28 25.66 -0.28 26.52 C-0.26 29.16 -0.23 31.8 -0.19 34.44 C-0.17 36.24 -0.16 38.04 -0.15 39.83 C-0.11 44.22 -0.06 48.61 0 53 C-0.33 53 -0.66 53 -1 53 C-2.03 44.73 -2.19 36.53 -2.19 28.21 C-2.19 25.94 -2.21 23.66 -2.22 21.39 C-2.25 14.02 -2.05 7.14 0 0 Z " fill="#A5AEFB" transform="translate(10,301)"/>
<path d="M0 0 C0.93 0 1.87 0.01 2.83 0.01 C3.8 0.02 4.77 0.03 5.77 0.04 C6.75 0.04 7.73 0.04 8.75 0.05 C11.17 0.06 13.59 0.08 16.02 0.1 C16.02 0.43 16.02 0.76 16.02 1.1 C12.72 1.26 12.72 1.26 -3.98 2.1 C-3.98 2.76 -3.98 3.42 -3.98 4.1 C-4.43 4.21 -4.43 4.21 -6.67 4.79 C-15.72 7.37 -24.46 11.15 -32.98 15.1 C-32.98 14.44 -32.98 13.78 -32.98 13.1 C-23.99 5.94 -11.68 -0.07 0 0 Z " fill="#B2C0FC" transform="translate(159.984375,18.90234375)"/>
<path d="M0 0 C8.75 13.13 3.43 35.29 2 50 C1.5 50.17 1.5 50.17 -1 51 C-0.96 50.72 -0.96 50.72 -0.78 49.32 C0.32 39.34 0.11 29.34 0.06 19.31 C0.06 17.44 0.05 15.56 0.05 13.68 C0.04 9.12 0.02 4.56 0 0 Z " fill="#628BFC" transform="translate(753,302)"/>
<path d="M0 0 C9.65 0.41 18.59 2.07 27.94 4.44 C29.21 4.75 30.49 5.06 31.8 5.38 C37.28 6.74 42.66 8.16 48 10 C47.67 10.66 47.34 11.32 47 12 C45.02 11.67 43.04 11.34 41 11 C41 10.34 41 9.68 41 9 C40.01 9.33 39.02 9.66 38 10 C35.65 9.4 33.32 8.72 31 8 C26.36 6.75 21.75 5.77 17 5 C16.01 4.67 15.02 4.34 14 4 C12.93 4.02 11.86 4.04 10.75 4.06 C6.69 3.99 3.83 3.25 0 2 C0 1.34 0 0.68 0 0 Z " fill="#CDD0FC" transform="translate(414,29)"/>
<path d="M0 0 C0.66 0 1.32 0 2 0 C2 0.99 2 1.98 2 3 C2.79 3.04 3.58 3.07 4.39 3.11 C12.52 3.6 20.12 4.95 28 7 C28 8.32 28 9.64 28 11 C26.85 10.69 25.69 10.38 24.5 10.06 C21.56 9.32 18.7 8.78 15.69 8.44 C12 8 12 8 9 7 C8.22 6.86 7.43 6.71 6.62 6.56 C3.92 5.98 1.54 5.09 -1 4 C-0.67 2.68 -0.34 1.36 0 0 Z " fill="#939FFB" transform="translate(552,69)"/>
<path d="M0 0 C0.66 0.33 1.32 0.66 2 1 C0.07 3.64 -1.45 5.69 -4.31 7.31 C-7.63 9.39 -9.66 11.96 -12.16 14.94 C-14.41 17.45 -16.87 19.51 -19.52 21.58 C-21.23 23.22 -22.05 24.84 -23 27 C-23.66 27 -24.32 27 -25 27 C-25.26 27.55 -25.51 28.1 -25.77 28.67 C-27.19 31.37 -28.86 33.77 -30.62 36.25 C-31.26 37.14 -31.89 38.03 -32.54 38.95 C-33.02 39.63 -33.5 40.3 -34 41 C-34 33.05 -24.81 24.88 -20 19 C-19.34 18.15 -18.67 17.29 -17.99 16.41 C-16.19 14.23 -14.4 12.45 -12.25 10.62 C-11.56 10.04 -10.88 9.45 -10.17 8.85 C-9.46 8.24 -8.74 7.63 -8 7 C-6.5 5.69 -5 4.38 -3.5 3.06 C-2.33 2.04 -1.17 1.02 0 0 Z " fill="#C5C2FB" transform="translate(84,186)"/>
<path d="M0 0 C5.29 7.94 6.76 17.99 8.69 27.19 C8.9 28.21 9.12 29.23 9.34 30.28 C10.54 36.18 11.43 42.01 12 48 C11.34 48 10.68 48 10 48 C8.37 41.96 6.94 36.02 6.12 29.81 C5.26 23.63 3.6 17.84 1.68 11.91 C0.38 7.81 -0.26 4.3 0 0 Z " fill="#7095FB" transform="translate(744,257)"/>
<path d="M0 0 C-1.47 3.22 -3.31 5.85 -5.5 8.62 C-6.11 9.4 -6.72 10.18 -7.34 10.98 C-9 13 -9 13 -11 15 C-11.33 14.34 -11.66 13.68 -12 13 C-3.76 0 -3.76 0 0 0 Z M-14 9 C-13.67 9.66 -13.34 10.32 -13 11 C-13.33 11.99 -13.66 12.98 -14 14 C-13.34 14.33 -12.68 14.66 -12 15 C-12.6 15.56 -13.2 16.11 -13.81 16.69 C-16 19 -16 19 -17.56 21.75 C-18.04 22.49 -18.51 23.24 -19 24 C-19.99 24 -20.98 24 -22 24 C-20.51 18.2 -17.41 13.82 -14 9 Z M-12 15 C-12 18 -12 18 -12 18 Z " fill="#A3A9FC" transform="translate(212,596)"/>
<path d="M0 0 C-0.98 0.27 -1.96 0.55 -2.96 0.83 C-16.6 4.74 -30.1 9.07 -42 17 C-42.99 16.67 -43.98 16.34 -45 16 C-34.62 8.62 -13.19 -4.51 0 0 Z " fill="#D7DBFD" transform="translate(218,77)"/>
<path d="M0 0 C13.07 0.58 22.22 10.37 31 19 C30.67 19.66 30.34 20.32 30 21 C29.58 20.6 29.17 20.2 28.74 19.79 C20.32 12.02 10.39 5.78 0 1 C0 0.67 0 0.34 0 0 Z " fill="#BAC8FC" transform="translate(190,14)"/>
<path d="M0 0 C-0.33 0.66 -0.66 1.32 -1 2 C-3.81 2.68 -6.6 3.27 -9.44 3.81 C-23.15 6.67 -33.38 12.76 -43 23 C-39.1 13.43 -27.85 7.51 -19.03 3.26 C-12.86 0.7 -6.68 -0.35 0 0 Z " fill="#C9CDFB" transform="translate(610,18)"/>
<path d="M0 0 C9.86 -0.32 18.86 0.51 28.56 2.38 C29.79 2.6 31.02 2.82 32.29 3.05 C37.43 4 42.19 4.91 47 7 C47 7.33 47 7.66 47 8 C40.93 7.63 35.08 6.88 29.12 5.62 C19.49 3.6 9.75 2.31 0 1 C0 0.67 0 0.34 0 0 Z " fill="#C0BEFB" transform="translate(395,40)"/>
<path d="M0 0 C0.66 0.33 1.32 0.66 2 1 C1.69 4.29 1.38 7.58 1.06 10.88 C0.98 11.81 0.89 12.75 0.8 13.71 C0.71 14.61 0.62 15.51 0.54 16.43 C0.46 17.26 0.38 18.08 0.3 18.94 C0 21 0 21 -1 23 C-1.15 24.52 -1.25 26.04 -1.32 27.57 C-1.36 28.47 -1.4 29.36 -1.44 30.29 C-1.46 30.75 -1.46 30.75 -1.56 33.12 C-1.61 34.07 -1.65 35.01 -1.69 35.99 C-1.8 38.33 -1.9 40.66 -2 43 C-2.33 43 -2.66 43 -3 43 C-4.35 27.79 -3.9 14.78 0 0 Z " fill="#919EFB" transform="translate(24,300)"/>
<path d="M0 0 C-2.56 2.56 -5.21 3.55 -8.5 5.06 C-16.7 9 -23.15 14.34 -28.88 21.44 C-30.86 23.83 -32.12 24.93 -35 26 C-33.78 21.38 -31.37 19.35 -27.79 16.47 C-26 15 -26 15 -23.56 12.5 C-17.58 6.66 -8.95 -1.12 0 0 Z " fill="#ADB6FB" transform="translate(596,23)"/>
<path d="M0 0 C1.39 2.78 0.64 4.75 -0.15 7.66 C-3.16 15.98 -8.58 22.1 -15 28 C-15.66 28.66 -16.32 29.32 -17 30 C-17.66 29.01 -18.32 28.02 -19 27 C-18.01 26.67 -17.02 26.34 -16 26 C-14.43 24.14 -12.94 22.21 -11.5 20.25 C-10.73 19.2 -9.95 18.16 -9.16 17.08 C-6.37 13.1 -3.97 9.35 -2.38 4.75 C-1 1 -1 1 0 0 Z " fill="#557DFC" transform="translate(671,102)"/>
<path d="M0 0 C8.33 3.73 12.39 12.62 16.75 20.19 C17.33 21.17 17.9 22.16 18.5 23.17 C20.77 27.07 23.02 30.94 25 35 C24.67 35.16 24.67 35.16 23 36 C22.64 35.39 22.29 34.77 21.92 34.14 C20.26 31.3 18.6 28.46 16.94 25.62 C16.38 24.66 15.81 23.69 15.24 22.7 C10.6 14.8 5.52 7.31 0 0 Z " fill="#989EF9" transform="translate(256,200)"/>
<path d="M0 0 C6.13 6.13 6.41 18.58 6.44 26.81 C6.37 33.57 5.71 39.73 3 46 C2.67 46 2.34 46 2 46 C2 43.69 2 41.38 2 39 C2.66 39 3.32 39 4 39 C4.03 35.69 4.05 32.38 4.06 29.06 C4.07 28.12 4.08 27.17 4.09 26.2 C4.09 25.3 4.09 24.4 4.1 23.47 C4.1 23.06 4.1 23.06 4.11 20.95 C4 19 4 19 3 18 C2.72 15.75 2.55 13.49 2.38 11.23 C2 9 2 9 0 6 C-0.12 2.81 -0.12 2.81 0 0 Z " fill="#AFBAFC" transform="translate(593,626)"/>
<path d="M0 0 C0.66 0.33 1.32 0.66 2 1 C1.43 1.56 0.85 2.12 0.26 2.69 C-2.38 5.27 -5 7.85 -7.62 10.44 C-8.53 11.32 -9.43 12.19 -10.36 13.1 C-15.15 17.83 -19.3 22.42 -22.76 28.21 C-24 30 -24 30 -27 32 C-23.27 21.43 -14.92 13.6 -6.7 6.38 C-4.37 4.33 -2.16 2.22 0 0 Z " fill="#CACEFC" transform="translate(164,109)"/>
<path d="M0 0 C0.99 0.33 1.98 0.66 3 1 C1.57 2.91 0.14 4.81 -1.3 6.71 C-2.37 8.15 -3.41 9.6 -4.42 11.07 C-8.13 16.37 -12.37 20.72 -18 24 C-21.56 24.44 -21.56 24.44 -24 24 C-24 23.34 -24 22.68 -24 22 C-23.34 21.77 -22.67 21.54 -21.99 21.3 C-21.55 21.14 -21.55 21.14 -19.31 20.31 C-18.44 20 -17.57 19.69 -16.68 19.36 C-10.98 16.46 -7.65 11.36 -4.19 6.19 C-3.78 5.59 -3.37 4.99 -2.96 4.38 C-1.97 2.92 -0.98 1.46 0 0 Z " fill="#4E81FC" transform="translate(270,412)"/>
<path d="M0 0 C2.44 0.75 2.44 0.75 5 2 C5.37 3.32 5.71 4.66 6 6 C7.32 6.69 8.66 7.35 10 8 C11.61 9.13 13.19 10.3 14.75 11.5 C15.55 12.11 16.35 12.72 17.17 13.34 C17.78 13.89 18.38 14.44 19 15 C19 15.66 19 16.32 19 17 C19.76 17.27 20.53 17.54 21.31 17.81 C23.89 18.95 25.27 19.81 27 22 C27 22.66 27 23.32 27 24 C25 24 25 24 23.38 22.62 C22 21 22 21 22 19 C21.28 18.73 20.56 18.46 19.81 18.19 C17 17 14.52 15.73 12 14 C12 13.34 12 12.68 12 12 C11.01 11.67 10.02 11.34 9 11 C7.29 9.38 5.63 7.71 4 6 C3.24 5.28 2.47 4.56 1.69 3.81 C0 2 0 2 0 0 Z " fill="#5879FB" transform="translate(73,461)"/>
<path d="M0 0 C3.99 0.57 6.63 1.81 10 4 C10.85 4.47 11.69 4.95 12.56 5.44 C16.26 7.81 18.6 9.79 20 14 C21.31 15.35 22.65 16.69 24 18 C24.66 18.99 25.32 19.98 26 21 C25.67 21.99 25.34 22.98 25 24 C20 18.25 20 18.25 20 16 C19.34 16 18.68 16 18 16 C14 11.53 14 11.53 14 9 C13.48 8.77 12.97 8.55 12.44 8.31 C9.67 6.82 7.22 5.07 4.68 3.22 C3.15 2.11 1.58 1.05 0 0 Z " fill="#7C91FB" transform="translate(642,27)"/>
<path d="M0 0 C0.33 0 0.66 0 1 0 C1.24 10.89 0.5 21.54 -0.5 32.38 C-0.65 34 -0.79 35.62 -0.93 37.24 C-1.28 41.16 -1.64 45.08 -2 49 C-2.33 49 -2.66 49 -3 49 C-3.33 42.73 -3.66 36.46 -4 30 C-3.34 30 -2.68 30 -2 30 C-1.34 20.1 -0.68 10.2 0 0 Z " fill="#ABBBFD" transform="translate(519,699)"/>
<path d="M0 0 C0.99 0 1.98 0 3 0 C3.29 4.14 3.58 8.28 3.85 12.42 C3.95 13.82 4.05 15.22 4.15 16.62 C4.84 26.44 5.13 36.16 5 46 C4.67 46 4.34 46 4 46 C3.91 44.86 3.83 43.71 3.74 42.53 C3.42 38.26 3.1 33.99 2.77 29.72 C2.63 27.88 2.5 26.03 2.36 24.19 C2.16 21.53 1.96 18.87 1.75 16.21 C1.69 15.4 1.63 14.58 1.57 13.74 C1.22 9.12 0.71 4.58 0 0 Z " fill="#B8BEFB" transform="translate(257,684)"/>
<path d="M0 0 C1.26 3.78 0.48 5.03 -0.94 8.69 C-1.32 9.68 -1.7 10.68 -2.09 11.7 C-2.39 12.46 -2.69 13.22 -3 14 C-3.66 14 -4.32 14 -5 14 C-5.66 20.93 -6.32 27.86 -7 35 C-7.33 35 -7.66 35 -8 35 C-8.44 27.15 -8.12 20.05 -6.25 12.44 C-6.09 11.77 -5.94 11.11 -5.77 10.42 C-4.64 6.13 -2.98 3.26 0 0 Z " fill="#9AACFC" transform="translate(113,52)"/>
<path d="M0 0 C0.33 0.66 0.66 1.32 1 2 C-0.77 7.3 -2.31 9.75 -7 13 C-9.18 13.95 -11.39 14.83 -13.62 15.62 C-17.12 16.88 -19.91 17.94 -23 20 C-23.99 19.67 -24.98 19.34 -26 19 C-21.38 16 -21.38 16 -18 16 C-18 15.34 -18 14.68 -18 14 C-17.25 13.77 -16.5 13.54 -15.73 13.3 C-5.97 10.07 -5.97 10.07 -3 5 C-2.42 4.07 -1.84 3.14 -1.25 2.19 C-0.84 1.47 -0.42 0.74 0 0 Z " fill="#C4C3FB" transform="translate(128,157)"/>
<path d="M0 0 C1.08 -0.02 2.16 -0.03 3.28 -0.05 C9.07 -0.05 13.3 0.08 18.19 3.31 C14.91 4.95 11.41 3.84 7.88 3.38 C0.25 2.44 -7.13 2.07 -14.81 2.31 C-10.18 -0.78 -5.45 -0.02 0 0 Z " fill="#9FB2FB" transform="translate(170.8125,19.6875)"/>
<path d="M0 0 C-2.73 1.77 -5.46 3.54 -8.19 5.31 C-8.96 5.81 -9.73 6.31 -10.52 6.83 C-12.01 7.79 -13.5 8.76 -15 9.72 C-16.65 10.77 -18.29 11.84 -19.93 12.92 C-20.61 13.28 -21.29 13.63 -22 14 C-22.66 13.67 -23.32 13.34 -24 13 C-23.34 12.01 -22.68 11.02 -22 10 C-20.68 10 -19.36 10 -18 10 C-17.67 9.01 -17.34 8.02 -17 7 C-15.68 7 -14.36 7 -13 7 C-12.67 6.01 -12.34 5.02 -12 4 C-10.29 2.58 -10.29 2.58 -8.19 1.25 C-7.5 0.8 -6.81 0.35 -6.11 -0.11 C-3.56 -1.18 -2.58 -0.77 0 0 Z " fill="#84A2FC" transform="translate(686,497)"/>
<path d="M0 0 C-0.68 0.36 -1.36 0.73 -2.05 1.1 C-11.03 5.95 -19.79 10.93 -28 17 C-28.66 16.67 -29.32 16.34 -30 16 C-23.98 10.94 -18.07 6.47 -11 3 C-10.18 2.6 -9.36 2.19 -8.51 1.77 C-2.29 -1.15 -2.29 -1.15 0 0 Z " fill="#D0CFFC" transform="translate(109,166)"/>
<path d="M0 0 C8.22 1.42 15.45 4.59 23 8 C22.34 8.66 21.68 9.32 21 10 C18.25 9.04 15.5 8.09 12.75 7.12 C11.97 6.86 11.2 6.59 10.39 6.31 C9.64 6.04 8.89 5.78 8.11 5.51 C7.42 5.27 6.73 5.03 6.01 4.78 C3.93 3.97 1.98 3.03 0 2 C0 1.34 0 0.68 0 0 Z " fill="#C4C8FB" transform="translate(474,44)"/>
<path d="M0 0 C0.33 0 0.33 0 2 0.01 C4.1 0.03 6.2 0.07 8.3 0.11 C9.72 0.12 11.15 0.13 12.58 0.15 C16.07 0.18 19.56 0.23 23.05 0.29 C22.72 0.95 22.39 1.61 22.05 2.29 C21.26 2.29 20.48 2.28 19.68 2.28 C16.15 2.26 12.63 2.24 9.11 2.23 C7.88 2.22 6.65 2.21 5.38 2.21 C4.79 2.2 4.79 2.2 1.83 2.2 C0.75 2.19 -0.34 2.18 -1.45 2.18 C-3.95 2.29 -3.95 2.29 -4.95 3.29 C-6.95 3.33 -8.95 3.34 -10.95 3.29 C-7.43 -0.04 -4.75 -0.06 0 0 Z " fill="#CBD1FC" transform="translate(341.953125,24.70703125)"/>
<path d="M0 0 C4.88 1.88 4.88 1.88 6 3 C6.99 2.67 7.98 2.34 9 2 C9.66 2.66 10.32 3.32 11 4 C13.37 4.3 15.74 4.5 18.12 4.62 C19.41 4.7 20.69 4.77 22.01 4.85 C23 4.9 23.98 4.95 25 5 C25 5.33 25 5.66 25 6 C15.01 7.29 6.35 6.97 -3 3 C-2.01 2.67 -1.02 2.34 0 2 C0 1.34 0 0.68 0 0 Z " fill="#95A4FC" transform="translate(210,693)"/>
<path d="M0 0 C0.1 6.28 -0.24 12.33 -1 18.56 C-1.1 19.38 -1.19 20.2 -1.29 21.04 C-1.52 23.03 -1.76 25.01 -2 27 C-2.33 27 -2.66 27 -3 27 C-3.33 21.72 -3.66 16.44 -4 11 C-3.34 11 -2.68 11 -2 11 C-2.33 7.7 -2.66 4.4 -3 1 C-1 0 -1 0 0 0 Z " fill="#99AFFC" transform="translate(516,749)"/>
<path d="M0 0 C-3.41 3.41 -7.39 4.11 -12.09 4.2 C-13.52 4.18 -14.95 4.16 -16.38 4.12 C-16.74 4.12 -16.74 4.12 -18.61 4.1 C-20.4 4.07 -22.2 4.04 -24 4 C-21.16 1.16 -18.07 1.29 -14.25 0.88 C-13.9 0.83 -13.9 0.83 -12.12 0.61 C-8.06 0.14 -4.1 -0.09 0 0 Z " fill="#7594FA" transform="translate(496,809)"/>
<path d="M0 0 C0.66 0.33 1.32 0.66 2 1 C-1.49 4.03 -5.04 6.73 -8.88 9.31 C-13.82 12.71 -17.92 16.62 -22 21 C-22 17.13 -21 16.57 -18.31 13.88 C-12.74 8.46 -6.48 4.24 0 0 Z " fill="#D3D8FD" transform="translate(171,94)"/>
<path d="M0 0 C0.33 0.66 0.66 1.32 1 2 C-0.32 3.32 -1.64 4.64 -3 6 C-1.12 1.12 -1.12 1.12 0 0 Z M-5 6 C-4.34 6.33 -3.68 6.66 -3 7 C-5.19 11.8 -7.25 15.25 -11 19 C-12.12 21.06 -13.11 23.15 -14.07 25.29 C-15 27 -15 27 -17 28 C-15.58 22.84 -13.33 18.2 -10 14 C-9.34 14 -8.68 14 -8 14 C-7.67 12.35 -7.34 10.7 -7 9 C-6.34 9 -5.68 9 -5 9 C-5 8.01 -5 7.02 -5 6 Z " fill="#EAEDFD" transform="translate(251,359)"/>
<path d="M0 0 C1.68 0.29 3.34 0.62 5 1 C4.67 1.99 4.34 2.98 4 4 C3.67 3.67 3.34 3.34 3 3 C2.95 3.85 2.9 4.71 2.85 5.59 C2.78 6.69 2.7 7.8 2.62 8.94 C2.56 10.04 2.49 11.14 2.41 12.28 C2.28 13.18 2.14 14.07 2 15 C1.67 15.16 1.67 15.16 0 16 C-0.85 10.92 -1.18 6.15 -1 1 C-0.67 0.67 -0.34 0.34 0 0 Z " fill="#7189FB" transform="translate(519,683)"/>
<path d="M0 0 C4.73 1.57 8.34 4.21 12.31 7.12 C12.96 7.59 13.6 8.06 14.27 8.54 C15.85 9.69 17.42 10.84 19 12 C18.01 12.33 17.02 12.66 16 13 C13.73 11.71 13.73 11.71 11.19 9.81 C8.29 7.68 5.42 5.59 2.38 3.69 C1.59 3.13 0.81 2.57 0 2 C0 1.34 0 0.68 0 0 Z " fill="#ABBBFD" transform="translate(686,165)"/>
<path d="M0 0 C2.04 0.12 4.08 0.24 6.12 0.38 C7.26 0.44 8.4 0.51 9.57 0.59 C14.73 1.21 19.17 2.99 23.88 5.12 C24.66 5.48 25.44 5.83 26.24 6.2 C26.82 6.46 27.4 6.73 28 7 C23.96 8.35 21.24 7 17.38 5.69 C11.62 3.8 5.95 2.17 0 1 C0 0.67 0 0.34 0 0 Z " fill="#A8ABFB" transform="translate(565,89)"/>
<path d="M0 0 C0 0.33 0 0.66 0 1 C-1.09 1.04 -2.18 1.07 -3.3 1.11 C-11.37 1.45 -18.8 2.08 -26.58 4.48 C-29.14 5.03 -30.55 4.86 -33 4 C-22.22 -1 -11.63 -0.42 0 0 Z " fill="#C7D0FC" transform="translate(176,19)"/>
<path d="M0 0 C0.66 0.33 1.32 0.66 2 1 C1.79 10.86 1.79 10.86 -1.56 14.12 C-2.37 14.74 -3.17 15.36 -4 16 C-3.48 10.13 -2.24 5.45 0 0 Z " fill="#A1A7FC" transform="translate(186,626)"/>
<path d="M0 0 C0.71 1.68 0.71 1.68 1 4 C-0.4 6.51 -0.4 6.51 -2.38 9.12 C-5.99 13.98 -5.99 13.98 -7 16 C-7.99 16 -8.98 16 -10 16 C-8.56 11.85 -6.5 8.7 -3.88 5.19 C-3.15 4.21 -2.43 3.24 -1.68 2.23 C-1.4 1.86 -1.4 1.86 0 0 Z " fill="#BDBDFB" transform="translate(46,208)"/>
<path d="M0 0 C0.33 0.99 0.66 1.98 1 3 C-0.23 4.37 -1.49 5.72 -2.75 7.06 C-3.1 7.44 -3.1 7.44 -4.86 9.35 C-7 11 -7 11 -9.27 10.75 C-9.84 10.5 -10.41 10.25 -11 10 C-9.54 8.52 -8.09 7.04 -6.62 5.56 C-5.81 4.74 -5 3.92 -4.16 3.07 C-2 1 -2 1 0 0 Z " fill="#8389FA" transform="translate(240,558)"/>
<path d="M0 0 C8.3 -0.2 15.95 -0.26 24 2 C24 2.33 24 2.66 24 3 C22.42 3.03 20.83 3.05 19.25 3.06 C18.81 3.07 18.81 3.07 16.58 3.1 C14.19 3.01 12.3 2.57 10 2 C8.25 1.93 6.5 1.91 4.75 1.94 C4.3 1.94 4.3 1.94 2.05 1.96 C1.37 1.98 0.7 1.99 0 2 C0 1.34 0 0.68 0 0 Z " fill="#2B29EF" transform="translate(283,550)"/>
<path d="M0 0 C2.62 2.62 3.48 5.58 4.69 9 C4.93 9.64 5.16 10.28 5.41 10.95 C6 12.61 6.51 14.3 7 16 C6.67 16.66 6.34 17.32 6 18 C2.68 16.34 2.12 13 0.82 9.66 C-0.24 6.22 -0.31 3.57 0 0 Z " fill="#A0B5FD" transform="translate(752,242)"/>
<path d="M0 0 C0.99 0 1.98 0 3 0 C1.73 5.79 -1.38 9.46 -6 13 C-8.23 13.7 -8.23 13.7 -10 14 C-8.65 9.96 -6.35 8.53 -3 6 C-2.34 6 -1.68 6 -1 6 C-0.67 4.02 -0.34 2.04 0 0 Z " fill="#7895FC" transform="translate(362,795)"/>
<path d="M0 0 C-2.93 1.95 -5.08 2.75 -8.44 3.69 C-9.38 3.96 -10.33 4.23 -11.31 4.51 C-13.99 5 -15.46 4.89 -18 4 C-17.67 3.34 -17.34 2.68 -17 2 C-11.22 0.14 -6.04 -0.25 0 0 Z " fill="#6F8FFA" transform="translate(616,530)"/>
<path d="M0 0 C0.66 0 1.32 0 2 0 C0.27 3.99 -2.36 7.28 -5 10.69 C-5.45 11.28 -5.9 11.87 -6.37 12.49 C-9.75 16.88 -9.75 16.88 -12 18 C-10.68 14.27 -9.05 11.51 -6.56 8.44 C-5.97 7.69 -5.37 6.95 -4.75 6.18 C-4.18 5.46 -3.6 4.74 -3 4 C-2.47 3.25 -1.95 2.5 -1.4 1.72 C-0.94 1.15 -0.48 0.59 0 0 Z " fill="#577BFA" transform="translate(138,114)"/>
<path d="M0 0 C0 3 0 3 -1.19 4.56 C-3.33 6.26 -5.43 7.1 -8 8 C-7.67 6.68 -7.34 5.36 -7 4 C-7.78 4.52 -8.57 5.03 -9.38 5.56 C-10.24 6.04 -11.11 6.51 -12 7 C-12.66 6.67 -13.32 6.34 -14 6 C-9.58 2.66 -6.64 1.55 -1 1 C-0.67 0.67 -0.34 0.34 0 0 Z " fill="#BFCBFB" transform="translate(140,15)"/>
<path d="M0 0 C0.66 0 1.32 0 2 0 C2.34 4.93 1.4 7.95 -0.88 12.31 C-1.41 13.36 -1.94 14.41 -2.49 15.49 C-4 18 -4 18 -6 19 C-5.71 18.15 -5.43 17.3 -5.13 16.43 C-4 13.01 -2.93 9.57 -1.88 6.12 C-1.52 4.97 -1.17 3.82 -0.8 2.63 C-0.54 1.76 -0.27 0.9 0 0 Z " fill="#5588FC" transform="translate(576,400)"/>
<path d="M0 0 C3.39 4.51 3.39 4.51 3.25 8 C3.22 8.69 3.2 9.38 3.17 10.09 C2.99 12.14 2.65 14.04 2 16 C1.34 16 0.68 16 0 16 C0 10.72 0 5.44 0 0 Z " fill="#E9EDFE" transform="translate(322,309)"/>
<path d="M0 0 C5.35 0.53 9.36 2.47 14 5 C14 5.99 14 6.98 14 8 C8.76 6.56 4.37 4.18 0 1 C0 0.67 0 0.34 0 0 Z " fill="#8B9FFA" transform="translate(108,506)"/>
<path d="M0 0 C3.3 3.04 5.54 6.2 7.81 10.06 C8.44 11.11 9.06 12.15 9.71 13.22 C11 16 11 16 10 19 C8.32 16.4 6.66 13.8 5 11.19 C4.76 10.82 4.76 10.82 3.55 8.95 C3.1 8.24 2.65 7.53 2.19 6.79 C1.77 6.14 1.35 5.48 0.92 4.81 C0 3 0 3 0 0 Z " fill="#EEF1FE" transform="translate(306,280)"/>
<path d="M0 0 C1.42 0.12 2.83 0.24 4.25 0.38 C5.04 0.44 5.83 0.51 6.64 0.59 C9.09 1.02 10.85 1.79 13 3 C13 3.99 13 4.98 13 6 C8.31 4.78 4.29 3.3 0 1 C0 0.67 0 0.34 0 0 Z " fill="#8594FC" transform="translate(567,74)"/>
<path d="M0 0 C0.33 0.66 0.66 1.32 1 2 C-6.44 4.02 -13.32 4.21 -21 4 C-17.06 1.48 -12.79 1.33 -8.25 0.88 C-7.46 0.79 -6.66 0.7 -5.85 0.61 C-3.9 0.4 -1.95 0.2 0 0 Z " fill="#DAD9FC" transform="translate(343,36)"/>
<path d="M0 0 C0.99 0.33 1.98 0.66 3 1 C2.09 2.13 1.17 3.26 0.25 4.38 C-0.26 5 -0.77 5.63 -1.3 6.27 C-3.08 8.08 -4.68 9 -7 10 C-7 7 -7 7 -5.47 5.18 C-4.82 4.56 -4.17 3.95 -3.5 3.31 C-2.85 2.69 -2.2 2.07 -1.53 1.43 C-1.28 1.19 -1.28 1.19 0 0 Z " fill="#BFC8FC" transform="translate(119,26)"/>
<path d="M0 0 C0.33 0.66 0.66 1.32 1 2 C1.66 2 2.32 2 3 2 C2.67 4.64 2.34 7.28 2 10 C2.66 10 3.32 10 4 10 C3.67 13.3 3.34 16.6 3 20 C2.67 20 2.34 20 2 20 C0.74 13.26 -0.26 6.87 0 0 Z " fill="#9AA4FA" transform="translate(266,770)"/>
<path d="M0 0 C7.35 0.58 14.01 2.71 21 5 C20.67 5.66 20.34 6.32 20 7 C19.01 6.84 19.01 6.84 14 6 C14 5.34 14 4.68 14 4 C13.01 4.33 12.02 4.66 11 5 C6.64 4.05 3.37 2.96 0 0 Z " fill="#D3D6FC" transform="translate(441,34)"/>
<path d="M0 0 C0.66 0 1.32 0 2 0 C0.57 3.9 -1.27 7.25 -3.5 10.75 C-4.11 11.71 -4.72 12.68 -5.34 13.67 C-7 16 -7 16 -9 17 C-7.69 12.59 -5.98 9 -3.5 5.12 C-2.89 4.16 -2.28 3.19 -1.66 2.2 C-1.38 1.83 -1.38 1.83 0 0 Z " fill="#EBF2FE" transform="translate(265,326)"/>
<path d="M0 0 C0.33 0 0.66 0 1 0 C2.25 6.39 2.25 6.39 1.06 9.25 C-0.29 12.74 -0.46 16.11 -0.62 19.81 C-0.66 20.51 -0.7 21.2 -0.74 21.91 C-0.84 23.61 -0.92 25.3 -1 27 C-1.33 27 -1.66 27 -2 27 C-2.38 8.66 -2.38 8.66 0 0 Z " fill="#D3DAFD" transform="translate(96,63)"/>
<path d="M0 0 C0.66 0 1.32 0 2 0 C2.05 2.08 2.09 4.17 2.12 6.25 C2.15 7.41 2.17 8.57 2.2 9.77 C2.01 12.83 1.61 14.44 0 17 C-0.38 15.01 -0.71 13.01 -1 11 C-0.67 10.67 -0.34 10.34 0 10 C0.07 8.31 0.08 6.62 0.06 4.94 C0.06 4.48 0.06 4.48 0.04 2.15 C0.02 1.44 0.01 0.73 0 0 Z " fill="#6181FC" transform="translate(365,778)"/>
<path d="M0 0 C3.58 3.58 4.76 9.23 5.19 14.21 C5.19 15.81 5.1 17.41 5 19 C4.34 18.67 3.68 18.34 3 18 C2.66 16.04 2.66 16.04 2.5 13.62 C2.27 10.1 2.05 9.07 0 6 C-0.12 2.81 -0.12 2.81 0 0 Z " fill="#9FABFB" transform="translate(593,626)"/>
<path d="M0 0 C0.66 0 1.32 0 2 0 C0.42 3.71 -1.91 6.3 -4.62 9.25 C-5.44 10.14 -6.26 11.03 -7.1 11.95 C-7.73 12.63 -8.35 13.3 -9 14 C-9.33 13.01 -9.66 12.02 -10 11 C-8.72 9.49 -7.42 8 -6.12 6.5 C-5.77 6.08 -5.77 6.08 -3.95 3.97 C-3.3 3.32 -2.66 2.67 -2 2 C-1.34 2 -0.68 2 0 2 C0 1.34 0 0.68 0 0 Z " fill="#8993FB" transform="translate(231,579)"/>
<path d="M0 0 C0.33 0.16 0.33 0.16 2 1 C2.62 3.56 2.62 3.56 3 6 C3.66 6 4.32 6 5 6 C6.42 9.82 7.24 12.91 7 17 C5 16 5 16 4.22 14.18 C3.98 13.42 3.74 12.66 3.5 11.88 C3.25 11.07 2.99 10.26 2.73 9.43 C1.79 6.3 0.87 3.16 0 0 Z " fill="#708BFB" transform="translate(668,51)"/>
<path d="M0 0 C2.65 2.65 3.6 5.56 5 9 C6.32 8.01 7.64 7.02 9 6 C9.66 6.33 10.32 6.66 11 7 C5.25 12 5.25 12 3 12 C-0.43 4.71 -0.43 4.71 0 0 Z " fill="#CAD4FB" transform="translate(232,52)"/>
<path d="M0 0 C0.71 1.77 0.71 1.77 1 4 C-0.43 5.92 -0.43 5.92 -2.44 7.75 C-2.77 8.06 -2.77 8.06 -4.43 9.61 C-4.69 9.84 -4.69 9.84 -6 11 C-6.71 9.23 -6.71 9.23 -7 7 C-5.57 5.08 -5.57 5.08 -3.56 3.25 C-2.9 2.64 -2.25 2.02 -1.57 1.39 C-1.05 0.93 -0.53 0.47 0 0 Z " fill="#9399FB" transform="translate(228,569)"/>
<path d="M0 0 C2.73 0.48 5.25 1.09 7.88 2 C11.25 3.08 14.49 3.58 18 4 C17.01 4.99 16.02 5.98 15 7 C13.06 6.41 11.12 5.8 9.19 5.19 C8.11 4.85 7.03 4.51 5.92 4.17 C3.18 3.07 1.84 2.25 0 0 Z " fill="#4A7AFB" transform="translate(226,431)"/>
<path d="M0 0 C0.66 0.33 1.32 0.66 2 1 C-0.89 10.59 -0.89 10.59 -4 14 C-4.18 10.05 -4.09 7.4 -2 4 C-1.34 4 -0.68 4 0 4 C-0.33 3.01 -0.66 2.02 -1 1 C-0.67 0.67 -0.34 0.34 0 0 Z " fill="#89ABFC" transform="translate(750,410)"/>
<path d="M0 0 C0.66 0.33 1.32 0.66 2 1 C0.38 3.04 -1.29 5.04 -3 7 C-3.66 7 -4.32 7 -5 7 C-5.13 7.4 -5.13 7.4 -5.81 9.44 C-6.01 9.86 -6.01 9.86 -7 12 C-7.99 12.33 -8.98 12.66 -10 13 C-7.6 7.8 -4.89 3.15 0 0 Z " fill="#BDC4FC" transform="translate(568,29)"/>
<path d="M0 0 C4.83 1.41 8.72 3.43 13 6 C13 6.66 13 7.32 13 8 C13.66 8.33 14.32 8.66 15 9 C10.75 8.45 8.15 7 4.69 4.5 C3.8 3.87 2.92 3.24 2.01 2.59 C1.35 2.07 0.68 1.54 0 1 C0 0.67 0 0.34 0 0 Z " fill="#556BFA" transform="translate(603,86)"/>
<path d="M0 0 C6.5 0.52 12.66 1.47 19 3 C18.67 3.99 18.34 4.98 18 6 C15.82 5.52 13.87 4.94 11.81 4.06 C7.96 2.61 4.02 1.82 0 1 C0 0.67 0 0.34 0 0 Z " fill="#8797FA" transform="translate(624,21)"/>
<path d="M0 0 C1.88 -0.34 1.88 -0.34 4.13 -0.29 C4.94 -0.28 5.74 -0.27 6.57 -0.26 C7.42 -0.24 8.26 -0.21 9.12 -0.19 C9.97 -0.17 10.82 -0.16 11.7 -0.15 C13.8 -0.11 15.9 -0.06 18 0 C18 0.33 18 0.66 18 1 C4.37 3.3 4.37 3.3 -2 3 C-1.34 2.01 -0.68 1.02 0 0 Z " fill="#899FFA" transform="translate(545,542)"/>
<path d="M0 0 C0.66 0.33 1.32 0.66 2 1 C1.28 1.56 0.56 2.11 -0.19 2.69 C-2.98 4.98 -5.48 7.41 -8 10 C-8.66 10.66 -9.32 11.32 -10 12 C-10.99 11.67 -11.98 11.34 -13 11 C-8.71 7.37 -4.42 3.74 0 0 Z " fill="#CACBFB" transform="translate(77,176)"/>
<path d="M0 0 C0.33 0 0.66 0 1 0 C0.48 6.5 -0.47 12.66 -2 19 C-2.33 19 -2.66 19 -3 19 C-3.33 16.69 -3.66 14.38 -4 12 C-3.34 12 -2.68 12 -2 12 C-2.16 11.18 -2.16 11.18 -3 7 C-2.34 7 -1.68 7 -1 7 C-0.67 4.69 -0.34 2.38 0 0 Z " fill="#A2BAFD" transform="translate(765,363)"/>
<path d="M0 0 C1.44 -0.03 2.87 -0.05 4.31 -0.06 C4.71 -0.07 4.71 -0.07 6.74 -0.1 C9 0 9 0 12 1 C12 1.66 12 2.32 12 3 C12.66 3.33 13.32 3.66 14 4 C9.03 3.49 4.71 2.77 0 1 C0 0.67 0 0.34 0 0 Z " fill="#8698F9" transform="translate(160,529)"/>
<path d="M0 0 C0.33 0.99 0.66 1.98 1 3 C1.66 3 2.32 3 3 3 C2.67 7.95 2.34 12.9 2 18 C1.67 18 1.34 18 1 18 C0.23 11.93 -0.1 6.11 0 0 Z " fill="#A6B0FA" transform="translate(264,751)"/>
<path d="M0 0 C1.13 0.93 2.25 1.87 3.38 2.81 C4 3.33 4.63 3.86 5.27 4.39 C7 6 7 6 9 9 C6 9 6 9 3.38 6.75 C1.12 4.14 0.62 3.2 0 0 Z " fill="#7C8BFC" transform="translate(547,565)"/>
<path d="M0 0 C0.33 0 0.66 0 1 0 C0.63 6.15 -0.9 8.69 -5 13 C-5.66 12.67 -6.32 12.34 -7 12 C-6.22 10.95 -5.43 9.9 -4.62 8.81 C-2.59 5.98 -1.11 3.33 0 0 Z " fill="#E8F0FD" transform="translate(572,408)"/>
<path d="M0 0 C0.5 0.33 0.5 0.33 3 2 C2.67 2.66 2.34 3.32 2 4 C2.66 4.33 3.32 4.66 4 5 C5.69 7.38 5.69 7.38 7 10 C6.67 10.99 6.34 11.98 6 13 C4.99 11.4 3.99 9.8 3 8.19 C2.44 7.29 1.89 6.4 1.31 5.48 C0 3 0 3 0 0 Z " fill="#8F9DFA" transform="translate(269,790)"/>
<path d="M0 0 C-1 3 -1 3 -4.38 4.75 C-8 6 -8 6 -11 5 C-8.2 1.57 -4.43 0 0 0 Z " fill="#7C98FB" transform="translate(637,521)"/>
<path d="M0 0 C0.94 2.54 1.17 3.61 0.07 6.14 C-0.15 6.49 -0.15 6.49 -1.31 8.25 C-1.76 8.96 -2.21 9.66 -2.68 10.39 C-3.11 10.92 -3.55 11.45 -4 12 C-4.66 12 -5.32 12 -6 12 C-4.43 7.69 -2.32 3.94 0 0 Z " fill="#EBF0FD" transform="translate(321,326)"/>
<path d="M0 0 C0.56 0.29 1.11 0.58 1.69 0.88 C4.08 2.04 6.52 3.03 9 4 C9 4.66 9 5.32 9 6 C9.66 6 10.32 6 11 6 C11 6.66 11 7.32 11 8 C11.99 8.33 12.98 8.66 14 9 C13.67 9.16 13.67 9.16 12 10 C11.34 9.67 10.68 9.34 10 9 C10 8.34 10 7.68 10 7 C9.34 7 8.68 7 8 7 C8 6.34 8 5.68 8 5 C7.62 4.94 7.62 4.94 5.69 4.62 C3 4 3 4 0 2 C0 1.34 0 0.68 0 0 Z " fill="#8DA4FB" transform="translate(686,180)"/>
<path d="M0 0 C0.66 0.33 1.32 0.66 2 1 C-1.94 5.56 -5.27 7.15 -11 9 C-11 8.34 -11 7.68 -11 7 C-8.66 5.24 -8.66 5.24 -5.62 3.31 C-4.63 2.67 -3.63 2.03 -2.6 1.36 C-1.74 0.91 -0.88 0.46 0 0 Z " fill="#CDD4FB" transform="translate(138,25)"/>
<path d="M0 0 C0.99 0.33 1.98 0.66 3 1 C2.38 2.82 1.76 4.63 1.12 6.44 C0.78 7.45 0.43 8.46 0.07 9.5 C-1 12 -1 12 -3 13 C-2.45 8.43 -1.58 4.33 0 0 Z " fill="#8793FB" transform="translate(195,630)"/>
<path d="M0 0 C1.21 3.64 0.67 4.33 -0.94 7.69 C-1.32 8.5 -1.7 9.3 -2.09 10.14 C-2.39 10.75 -2.69 11.37 -3 12 C-3.33 12 -3.66 12 -4 12 C-4.23 8.97 -4.36 6.03 -4 3 C-2 0.94 -2 0.94 0 0 Z " fill="#8A94FC" transform="translate(191,623)"/>
<path d="M0 0 C0.66 0.33 1.32 0.66 2 1 C1.98 1.76 1.96 2.53 1.94 3.31 C2 6 2 6 3 9 C2.06 11.19 2.06 11.19 1 13 C0.64 11.21 0.29 9.42 -0.06 7.62 C-0.26 6.63 -0.46 5.63 -0.66 4.6 C-1 2 -1 2 0 0 Z " fill="#9AA8FB" transform="translate(13,367)"/>
<path d="M0 0 C1.88 0.62 1.88 0.62 4 2 C5.25 5.12 5.25 5.12 6 8 C6.66 8 7.32 8 8 8 C8 8.66 8 9.32 8 10 C7.01 9.67 6.02 9.34 5 9 C4.31 6.94 4.31 6.94 4 5 C3.01 5 2.02 5 1 5 C0.84 4.18 0.84 4.18 0 0 Z " fill="#819DFA" transform="translate(712,203)"/>
<path d="M0 0 C1.67 2.15 3.17 4.28 4.56 6.62 C6 9 6 9 8 11 C5.78 10.62 4.2 10.13 2.31 8.88 C0.37 6.1 0.31 3.32 0 0 Z " fill="#B7C6FD" transform="translate(663,147)"/>
<path d="M0 0 C3.29 2.8 5.06 6.2 7 10 C6.67 10.66 6.34 11.32 6 12 C5.34 11.67 4.68 11.34 4 11 C4 9.68 4 8.36 4 7 C3.34 7 2.68 7 2 7 C0 4 0 4 0 0 Z " fill="#BBCBFD" transform="translate(225,40)"/>
<path d="M0 0 C0.33 0.99 0.66 1.98 1 3 C-1.64 5.64 -4.28 8.28 -7 11 C-7 7.22 -6 6.54 -3.5 3.81 C-2.85 3.1 -2.2 2.38 -1.53 1.64 C-1.03 1.1 -0.52 0.56 0 0 Z " fill="#CCD1FC" transform="translate(562,29)"/>
<path d="M0 0 C1.32 0 2.64 0 4 0 C4 0.66 4 1.32 4 2 C4.93 1.94 5.86 1.88 6.81 1.81 C10 2 10 2 11.88 3.5 C12.25 4 12.62 4.49 13 5 C7.29 4.61 4.26 4.13 0 0 Z " fill="#92A3FB" transform="translate(281,807)"/>
<path d="M0 0 C4.95 0 9.9 0 15 0 C15 0.33 15 0.66 15 1 C13.27 1.34 11.54 1.67 9.81 2 C9.33 2.09 9.33 2.09 6.89 2.56 C4.21 2.97 1.71 3.08 -1 3 C-0.67 2.01 -0.34 1.02 0 0 Z " fill="#94A9FB" transform="translate(565,539)"/>
<path d="M0 0 C0.66 0.99 1.32 1.98 2 3 C0.02 5.97 -1.96 8.94 -4 12 C-5 8 -5 8 -4 5.86 C-3.53 5.16 -3.05 4.47 -2.56 3.75 C-2.33 3.4 -2.33 3.4 -1.13 1.61 C-0.76 1.08 -0.38 0.55 0 0 Z " fill="#6393FD" transform="translate(308,351)"/>
<path d="M0 0 C1.32 0.33 2.64 0.66 4 1 C2.84 1.99 2.84 1.99 -3 7 C-1.12 1.12 -1.12 1.12 0 0 Z " fill="#BABAFC" transform="translate(63,188)"/>
<path d="M0 0 C0 2.97 0 5.94 0 9 C-0.33 9.16 -0.33 9.16 -2 10 C-2.33 7.03 -2.66 4.06 -3 1 C-1 0 -1 0 0 0 Z " fill="#8AA2FC" transform="translate(516,749)"/>
<path d="M0 0 C1.32 0.95 2.63 1.91 3.94 2.88 C4.67 3.41 5.4 3.94 6.15 4.49 C8 6 8 6 9 8 C7.35 7.67 5.7 7.34 4 7 C4 6.34 4 5.68 4 5 C2.68 4.34 1.36 3.68 0 3 C0 2.01 0 1.02 0 0 Z " fill="#7F8EFB" transform="translate(534,553)"/>
<path d="M0 0 C1.14 3.41 0.87 4 -0.44 7.19 C-0.72 7.9 -1.01 8.62 -1.31 9.36 C-1.54 9.9 -1.76 10.44 -2 11 C-2.33 11 -2.66 11 -3 11 C-3.12 4.38 -3.12 4.38 -2 1 C-1.34 0.67 -0.68 0.34 0 0 Z " fill="#8FADFC" transform="translate(757,395)"/>
<path d="M0 0 C0.99 0 1.98 0 3 0 C2.5 1.98 2.5 1.98 0 12 C-0.33 12 -0.66 12 -1 12 C-1 9.36 -1 6.72 -1 4 C-0.34 4 0.32 4 1 4 C0.67 2.68 0.34 1.36 0 0 Z " fill="#96B2FC" transform="translate(759,383)"/>
<path d="M0 0 C1 3 1 3 0.07 5.04 C-0.15 5.4 -0.15 5.4 -1.31 7.19 C-1.76 7.9 -2.21 8.62 -2.68 9.36 C-3.11 9.9 -3.55 10.44 -4 11 C-4.66 11 -5.32 11 -6 11 C-4.55 6.89 -2.49 3.57 0 0 Z " fill="#E9EFFD" transform="translate(313,340)"/>
<path d="M0 0 C0.66 0.33 1.32 0.66 2 1 C-0.33 3.33 -2.67 5.67 -5 8 C-5.99 7.67 -6.98 7.34 -8 7 C-5.36 4.69 -2.72 2.38 0 0 Z " fill="#C8CDFB" transform="translate(571,21)"/>
<path d="M0 0 C3.59 1.33 6.75 2.96 10 5 C6.25 6.12 6.25 6.12 4 5 C4 4.34 4 3.68 4 3 C2.68 3 1.36 3 0 3 C0 2.01 0 1.02 0 0 Z " fill="#BAC3FC" transform="translate(644,15)"/>
<path d="M0 0 C1.32 0.66 2.64 1.32 4 2 C1.19 4.06 1.19 4.06 -2 6 C-2.99 5.67 -3.98 5.34 -5 5 C-3.62 3.5 -3.62 3.5 -2 2 C-1.34 2 -0.68 2 0 2 C0 1.34 0 0.68 0 0 Z " fill="#899CFC" transform="translate(576,690)"/>
<path d="M0 0 C1.65 0 3.3 0 5 0 C5 0.66 5 1.32 5 2 C5.99 2 6.98 2 8 2 C8 2.99 8 3.98 8 5 C2.25 3.38 2.25 3.38 0 0 Z " fill="#8E9BFA" transform="translate(199,690)"/>
<path d="M0 0 C0.99 0 1.98 0 3 0 C3 3.96 3 7.92 3 12 C2.67 12 2.34 12 2 12 C1.34 8.04 0.68 4.08 0 0 Z " fill="#9DA7FB" transform="translate(257,684)"/>
<path d="M0 0 C0 4.25 -1.82 6.39 -4 10 C-4.33 10 -4.66 10 -5 10 C-5 8.02 -5 6.04 -5 4 C-4.01 4 -3.02 4 -2 4 C-2 3.01 -2 2.02 -2 1 C-1.34 0.67 -0.68 0.34 0 0 Z " fill="#95B3FC" transform="translate(738,437)"/>
<path d="M0 0 C1.15 0.95 2.29 1.91 3.44 2.88 C4.08 3.41 4.71 3.94 5.37 4.49 C7 6 7 6 8 8 C4.21 7.46 2.41 5.92 0 3 C0 2.01 0 1.02 0 0 Z " fill="#AAB8FD" transform="translate(661,26)"/>
<path d="M0 0 C2.16 -0.29 2.16 -0.29 4.62 -0.19 C5.44 -0.16 6.26 -0.13 7.1 -0.11 C7.41 -0.09 7.41 -0.09 9 0 C7.68 0.33 6.36 0.66 5 1 C5 1.66 5 2.32 5 3 C2.69 3 0.38 3 -2 3 C-1.34 2.01 -0.68 1.02 0 0 Z " fill="#5E7DFB" transform="translate(538,543)"/>
<path d="M0 0 C1.26 0.12 2.52 0.25 3.81 0.38 C4.17 0.41 4.17 0.41 5.96 0.59 C8 1 8 1 11 3 C8.03 3 5.06 3 2 3 C2 2.34 2 1.68 2 1 C1.34 0.67 0.68 0.34 0 0 Z " fill="#5F79F9" transform="translate(172,531)"/>
<path d="M0 0 C0.33 0 0.66 0 1 0 C1.33 2.31 1.66 4.62 2 7 C1.01 7 0.02 7 -1 7 C-1.04 5 -1.04 3 -1 1 C-0.67 0.67 -0.34 0.34 0 0 Z M-1 8 C-1 11 -1 11 -1 11 Z " fill="#8B95FB" transform="translate(14,281)"/>
<path d="M0 0 C0.66 0.66 1.32 1.32 2 2 C0.84 2.99 0.84 2.99 -5 8 C-3.95 3.81 -3.08 2.78 0 0 Z " fill="#F1F0FD" transform="translate(231,204)"/>
<path d="M0 0 C2.25 -0.25 2.25 -0.25 5 0 C7.31 2 7.31 2 9 4 C8.67 4.17 8.67 4.17 7 5 C4.52 3.89 2.32 2.42 0 1 C0 0.67 0 0.34 0 0 Z " fill="#BEC3FC" transform="translate(516,63)"/>
<path d="M0 0 C2.31 0 4.62 0 7 0 C7 0.66 7 1.32 7 2 C7.66 2.33 8.32 2.66 9 3 C5.8 4.6 3.28 3.03 0 2 C0 1.34 0 0.68 0 0 Z " fill="#C3C8FC" transform="translate(414,29)"/>
<path d="M0 0 C2.31 0.33 4.62 0.66 7 1 C3.81 3.13 1.73 3.5 -2 4 C-1.34 2.68 -0.68 1.36 0 0 Z " fill="#869BFD" transform="translate(237,694)"/>
<path d="M0 0 C-2.85 2.32 -5.54 3.75 -9 5 C-9 4.01 -9 3.02 -9 2 C-5.87 0.14 -3.63 -0.2 0 0 Z " fill="#7D9CFB" transform="translate(662,511)"/>
<path d="M0 0 C0.66 0.33 1.32 0.66 2 1 C0.68 2.16 0.68 2.16 -6 8 C-6.66 7.67 -7.32 7.34 -8 7 C-5.36 4.69 -2.72 2.38 0 0 Z " fill="#B0BCFB" transform="translate(131,31)"/>
<path d="M0 0 C2.97 0 5.94 0 9 0 C5.56 2.3 3.06 2.54 -1 3 C-0.67 2.01 -0.34 1.02 0 0 Z " fill="#839EFA" transform="translate(607,530)"/>
<path d="M0 0 C0.66 0 1.32 0 2 0 C2.34 4.94 2.16 5.78 -1 10 C-0.67 6.7 -0.34 3.4 0 0 Z " fill="#4A81FC" transform="translate(576,400)"/>
<path d="M0 0 C0.66 1.32 1.32 2.64 2 4 C0.62 6 0.62 6 -1 8 C-1.66 8 -2.32 8 -3 8 C-1.12 2.25 -1.12 2.25 0 0 Z " fill="#BFBFFC" transform="translate(30,233)"/>
<path d="M0 0 C1.49 0.33 1.49 0.33 9 2 C8.01 2.66 7.02 3.32 6 4 C2.81 3.12 2.81 3.12 0 2 C0 1.34 0 0.68 0 0 Z " fill="#C9CDFD" transform="translate(474,44)"/>
<path d="M0 0 C3.25 2.83 4.52 4.69 5 9 C4.01 8.67 3.02 8.34 2 8 C0.55 5.1 0 3.26 0 0 Z " fill="#87A3FD" transform="translate(754,251)"/>
</svg>
